<svg width="976.000000" height="177.000000" viewBox="0 0 976 177" fill="none" xmlns="http://www.w3.org/2000/svg" xmlns:xlink="http://www.w3.org/1999/xlink">
	<desc>
			Created with Pixso.
	</desc>
	<g filter="url(#filter_324_35540_dd)">
		<rect rx="4.000000" width="960.000000" height="161.000000" transform="translate(8.000000 6.000000)" fill="#FFFFFF"/>
		<g clip-path="url(#clip324_35540)">
			<g clip-path="url(#clip324_35541)">
				<path d="M236.003 58.25C241.35 58.25 245.763 62.6689 245.763 68.0239C245.763 71.8267 243.538 75.1582 240.333 76.7695C247.438 78.6689 252.983 85.1401 254.412 93.2891L254.454 93.6421C254.58 94.6724 253.849 95.6099 252.819 95.7358C252.745 95.7451 252.668 95.75 252.592 95.75L219.408 95.75C218.372 95.75 217.531 94.9087 217.531 93.8701C217.531 93.7788 217.539 93.688 217.552 93.5972L217.6 93.2637C219.036 85.1265 224.577 78.6665 231.674 76.769C228.471 75.1572 226.244 71.8267 226.244 68.0239C226.244 62.6704 230.656 58.25 236.003 58.25L236.003 58.25Z" fill-rule="evenodd" fill="#222222"/>
			</g>
			<g clip-path="url(#clip324_35543)">
				<path d="M502.818 77C502.818 66.6445 494.41 58.25 484.039 58.25C473.667 58.25 465.258 66.6445 465.258 77C465.258 87.3555 473.667 95.75 484.039 95.75C494.41 95.75 502.818 87.3555 502.818 77L502.818 77M481.798 66.4756C481.818 65.25 482.819 64.2627 484.052 64.2627C485.28 64.2827 486.305 65.2827 486.305 66.5127L486.305 74.7627L494.568 74.7627C495.812 74.7627 496.822 75.77 496.822 77.0127C496.822 78.2554 495.812 79.2627 494.568 79.2627L486.305 79.2627L486.305 87.5127C486.285 88.7383 485.284 89.7627 484.052 89.7627C482.825 89.7432 481.798 88.7432 481.798 87.5127L481.798 79.2627L473.535 79.2627C472.289 79.2627 471.281 78.2554 471.281 77.0127C471.281 75.77 472.289 74.7627 473.535 74.7627L481.798 74.7627L481.798 66.4756Z" fill-rule="evenodd" fill="#222222"/>
			</g>
			<g clip-path="url(#clip324_35545)">
				<path d="M731.719 58.249C737.06 58.249 741.469 62.6572 741.469 67.9985C741.469 71.8462 739.181 75.2104 735.905 76.7905C737.754 77.2734 739.499 78.0659 741.094 79.1177C736.945 80.084 733.854 83.8057 733.854 88.249C733.854 91.3159 735.327 94.0386 737.603 95.749L715.125 95.749C714.089 95.749 713.25 94.9097 713.25 93.874C713.25 93.7832 713.257 93.6924 713.271 93.6021L713.319 93.269C714.762 85.0967 720.354 78.6206 727.506 76.7778C724.245 75.1919 721.969 71.8354 721.969 67.9985C721.969 62.6582 726.376 58.249 731.719 58.249L731.719 58.249M743.25 80.7505C747.393 80.7505 750.75 84.1084 750.75 88.2505C750.75 92.3926 747.393 95.7505 743.25 95.7505C739.107 95.7505 735.75 92.3926 735.75 88.2505C735.75 84.1084 739.107 80.7505 743.25 80.7505L743.25 80.7505M741.75 84.6162C741.763 83.7988 742.43 83.1406 743.25 83.1406C744.079 83.1406 744.75 83.8125 744.75 84.6406L744.75 86.75L746.859 86.75C747.677 86.7632 748.359 87.4302 748.359 88.25C748.359 89.0786 747.688 89.75 746.859 89.75L744.75 89.75L744.75 91.8594C744.737 92.6763 744.07 93.3594 743.25 93.3594C742.421 93.3594 741.75 92.688 741.75 91.8594L741.75 89.75L739.641 89.75C738.823 89.7368 738.141 89.0703 738.141 88.25C738.141 87.4219 738.812 86.75 739.641 86.75L741.75 86.75L741.75 84.6162Z" fill-rule="evenodd" fill="#222222"/>
			</g>
			<path d="M361.303 87.8252L358.675 87.8252L358.675 79.9414L351.371 79.9414L351.371 77.4893L358.675 77.4893L358.675 69.6406L361.303 69.6406L361.303 77.4893L368.615 77.4893L368.615 79.9414L361.303 79.9414L361.303 87.8252Z" fill="#5C6785"/>
			<path d="M616.615 75.6523L599.371 75.6523L599.371 73.209L616.615 73.209L616.615 75.6523ZM616.615 84.2568L599.371 84.2568L599.371 81.8135L616.615 81.8135L616.615 84.2568Z" fill="#5C6785"/>
			<path d="M250.453 119.273L240.148 119.273C240.066 122.137 239.316 124.602 237.875 126.664L237.027 125.895C238.324 124.105 238.98 121.77 239.012 118.902L239.012 113.895L244.227 113.895C243.941 113.223 243.637 112.602 243.301 112.023L244.531 111.832C244.82 112.441 245.109 113.129 245.395 113.895L250.453 113.895L250.453 119.273ZM227.973 121.367L223.844 121.367C223.668 123.414 223.074 125.113 222.051 126.457L221.172 125.672C222.195 124.246 222.723 122.441 222.758 120.246L222.758 112.566L234.676 112.566L234.676 124.551C234.676 125.672 234.117 126.23 232.996 126.23L231.156 126.23L230.852 125.098C231.492 125.129 232.082 125.16 232.629 125.16C233.203 125.16 233.508 124.824 233.508 124.152L233.508 121.367L229.156 121.367L229.156 126.055L227.973 126.055L227.973 121.367ZM227.973 116.441L227.973 113.688L223.906 113.688L223.906 116.441L227.973 116.441ZM229.156 116.441L233.508 116.441L233.508 113.688L229.156 113.688L229.156 116.441ZM249.285 118.152L249.285 115.031L240.148 115.031L240.148 118.152L249.285 118.152ZM227.973 117.512L223.906 117.512L223.906 120.312L227.973 120.312L227.973 117.512ZM229.156 120.312L233.508 120.312L233.508 117.512L229.156 117.512L229.156 120.312Z" fill="#9298B5"/>
			<path d="M487.957 115.207L487.957 111.977L489.109 111.977L489.109 115.207L492.371 115.207C492.371 120.199 492.293 123.289 492.133 124.473C491.973 125.785 491.188 126.457 489.781 126.457C489.539 126.457 489.141 126.426 488.562 126.391L488.277 125.336C488.789 125.367 489.234 125.398 489.621 125.398C490.438 125.398 490.914 124.938 491.043 124.023C491.141 123.191 491.203 120.617 491.234 116.328L489.109 116.328C489.043 121.047 487.988 124.488 485.941 126.664L485.094 125.91C486.949 123.91 487.906 120.711 487.957 116.328L485.395 116.328L485.395 115.207L487.957 115.207ZM469.57 112.938L470.371 112.168C471.363 112.855 472.211 113.543 472.883 114.246L472.102 115.031C471.492 114.375 470.645 113.672 469.57 112.938ZM473.781 113.641L473.781 112.566L482.723 112.566L482.723 113.641L478.371 113.641C478.211 114.359 478.035 115.031 477.812 115.656L483.43 115.656L483.43 116.762L480.066 116.762C480.898 118.055 482.18 119.078 483.906 119.816L483.41 120.824C481.285 119.785 479.781 118.426 478.898 116.762L477.363 116.762C477.203 117.078 477.043 117.367 476.883 117.656C476.066 118.887 474.852 119.992 473.254 120.969L472.531 120.055C474.051 119.223 475.187 118.215 475.957 117.062C476.02 116.953 476.086 116.855 476.148 116.762L473.043 116.762L473.043 115.656L476.66 115.656C476.914 115.016 477.094 114.344 477.219 113.641L473.781 113.641ZM493.844 114.312L499.074 114.312L499.074 126.359L497.957 126.359L497.957 125.289L494.949 125.289L494.949 126.359L493.844 126.359L493.844 114.312ZM494.949 115.418L494.949 124.184L497.957 124.184L497.957 115.418L494.949 115.418ZM469.203 116.762L469.988 115.992C471.012 116.777 471.859 117.559 472.547 118.344L471.766 119.129C471.141 118.391 470.293 117.594 469.203 116.762ZM478.051 125.238C478.051 126.152 477.652 126.617 476.852 126.617L475.363 126.617L475.125 125.527C475.59 125.574 476.035 125.609 476.453 125.609C476.773 125.609 476.949 125.383 476.949 124.969L476.949 119.113L478.051 119.113L478.051 125.238ZM469.254 126.039C470.086 124.215 470.82 122.328 471.445 120.406L472.453 120.809C471.812 122.824 471.094 124.727 470.324 126.52L469.254 126.039ZM480.789 120.969L481.797 120.633C482.547 122.055 483.203 123.574 483.746 125.191L482.723 125.641C482.133 123.879 481.492 122.312 480.789 120.969ZM472.707 125.062C473.492 123.93 474.18 122.586 474.758 121.016L475.715 121.48C475.125 123.113 474.437 124.535 473.652 125.734L472.707 125.062ZM478.707 121.543L479.684 121.207C480.355 122.617 480.934 124.121 481.43 125.719L480.402 126.184C479.891 124.426 479.332 122.887 478.707 121.543Z" fill="#9298B5"/>
			<path d="M762.453 119.273L752.148 119.273C752.066 122.137 751.316 124.602 749.875 126.664L749.027 125.895C750.324 124.105 750.98 121.77 751.012 118.902L751.012 113.895L756.227 113.895C755.941 113.223 755.637 112.602 755.301 112.023L756.531 111.832C756.82 112.441 757.109 113.129 757.395 113.895L762.453 113.895L762.453 119.273ZM719.957 115.207L719.957 111.977L721.109 111.977L721.109 115.207L724.371 115.207C724.371 120.199 724.293 123.289 724.133 124.473C723.973 125.785 723.188 126.457 721.781 126.457C721.539 126.457 721.141 126.426 720.562 126.391L720.277 125.336C720.789 125.367 721.234 125.398 721.621 125.398C722.438 125.398 722.914 124.938 723.043 124.023C723.141 123.191 723.203 120.617 723.234 116.328L721.109 116.328C721.043 121.047 719.988 124.488 717.941 126.664L717.094 125.91C718.949 123.91 719.906 120.711 719.957 116.328L717.395 116.328L717.395 115.207L719.957 115.207ZM701.57 112.938L702.371 112.168C703.363 112.855 704.211 113.543 704.883 114.246L704.102 115.031C703.492 114.375 702.644 113.672 701.57 112.938ZM705.781 113.641L705.781 112.566L714.723 112.566L714.723 113.641L710.371 113.641C710.211 114.359 710.035 115.031 709.812 115.656L715.43 115.656L715.43 116.762L712.066 116.762C712.898 118.055 714.18 119.078 715.906 119.816L715.41 120.824C713.285 119.785 711.781 118.426 710.898 116.762L709.363 116.762C709.203 117.078 709.043 117.367 708.883 117.656C708.066 118.887 706.852 119.992 705.254 120.969L704.531 120.055C706.051 119.223 707.187 118.215 707.957 117.062C708.019 116.953 708.086 116.855 708.148 116.762L705.043 116.762L705.043 115.656L708.66 115.656C708.914 115.016 709.094 114.344 709.219 113.641L705.781 113.641ZM739.973 121.367L735.844 121.367C735.668 123.414 735.074 125.113 734.051 126.457L733.172 125.672C734.195 124.246 734.723 122.441 734.758 120.246L734.758 112.566L746.676 112.566L746.676 124.551C746.676 125.672 746.117 126.23 744.996 126.23L743.156 126.23L742.852 125.098C743.492 125.129 744.082 125.16 744.629 125.16C745.203 125.16 745.508 124.824 745.508 124.152L745.508 121.367L741.156 121.367L741.156 126.055L739.973 126.055L739.973 121.367ZM739.973 116.441L739.973 113.688L735.906 113.688L735.906 116.441L739.973 116.441ZM741.156 116.441L745.508 116.441L745.508 113.688L741.156 113.688L741.156 116.441ZM725.844 114.312L731.074 114.312L731.074 126.359L729.957 126.359L729.957 125.289L726.949 125.289L726.949 126.359L725.844 126.359L725.844 114.312ZM761.285 118.152L761.285 115.031L752.148 115.031L752.148 118.152L761.285 118.152ZM726.949 115.418L726.949 124.184L729.957 124.184L729.957 115.418L726.949 115.418ZM701.203 116.762L701.988 115.992C703.012 116.777 703.859 117.559 704.547 118.344L703.766 119.129C703.141 118.391 702.293 117.594 701.203 116.762ZM739.973 117.512L735.906 117.512L735.906 120.312L739.973 120.312L739.973 117.512ZM741.156 120.312L745.508 120.312L745.508 117.512L741.156 117.512L741.156 120.312ZM710.051 125.238C710.051 126.152 709.652 126.617 708.852 126.617L707.363 126.617L707.125 125.527C707.59 125.574 708.035 125.609 708.453 125.609C708.773 125.609 708.949 125.383 708.949 124.969L708.949 119.113L710.051 119.113L710.051 125.238ZM701.254 126.039C702.086 124.215 702.82 122.328 703.445 120.406L704.453 120.809C703.812 122.824 703.094 124.727 702.324 126.52L701.254 126.039ZM712.789 120.969L713.797 120.633C714.547 122.055 715.203 123.574 715.746 125.191L714.723 125.641C714.133 123.879 713.492 122.312 712.789 120.969ZM704.707 125.062C705.492 123.93 706.18 122.586 706.758 121.016L707.715 121.48C707.125 123.113 706.437 124.535 705.652 125.734L704.707 125.062ZM710.707 121.543L711.684 121.207C712.355 122.617 712.934 124.121 713.43 125.719L712.402 126.184C711.891 124.426 711.332 122.887 710.707 121.543Z" fill="#9298B5"/>
		</g>
	</g>
	<defs>
		<filter id="filter_324_35540_dd" x="0.000000" y="0.000000" width="976.000000" height="177.000000" filterUnits="userSpaceOnUse" color-interpolation-filters="sRGB">
			<feFlood flood-opacity="0" result="BackgroundImageFix"/>
			<feColorMatrix in="SourceAlpha" type="matrix" values="0 0 0 0 0 0 0 0 0 0 0 0 0 0 0 0 0 0 127 0"/>
			<feOffset dx="0" dy="2"/>
			<feGaussianBlur stdDeviation="2.66667"/>
			<feColorMatrix type="matrix" values="0 0 0 0 0 0 0 0 0 0 0 0 0 0 0 0 0 0 0.098 0"/>
			<feBlend mode="normal" in2="BackgroundImageFix" result="effect_dropShadow_1"/>
			<feBlend mode="normal" in="SourceGraphic" in2="effect_dropShadow_1" result="shape"/>
		</filter>
		<clipPath id="clip324_35541">
			<rect width="48.000000" height="48.000000" transform="translate(212.000000 53.000000)" fill="white"/>
		</clipPath>
		<clipPath id="clip324_35543">
			<rect width="48.076923" height="48.000000" transform="translate(460.000000 53.000000)" fill="white"/>
		</clipPath>
		<clipPath id="clip324_35545">
			<rect width="48.000000" height="48.000000" transform="translate(708.000000 53.000000)" fill="white"/>
		</clipPath>
		<clipPath id="clip324_35540">
			<rect rx="4.000000" width="960.000000" height="161.000000" transform="translate(8.000000 6.000000)" fill="white"/>
		</clipPath>
	</defs>
</svg>
