<svg width="976.000000" height="329.000000" viewBox="0 0 976 329" fill="none" xmlns="http://www.w3.org/2000/svg" xmlns:xlink="http://www.w3.org/1999/xlink">
	<desc>
			Created with Pixso.
	</desc>
	<g filter="url(#filter_320_37927_dd)">
		<rect width="960.000000" height="313.000000" transform="translate(8.000000 6.000000)" fill="#FFFFFF"/>
		<g clip-path="url(#clip320_37927)">
			<g opacity="0.000100">
				<rect x="59.000000" y="48.000000" width="40.000000" height="40.000000" fill="#222222"/>
			</g>
			<path d="M94.625 68.001C94.625 59.3701 87.6279 52.376 78.9995 52.376C70.3701 52.376 63.375 59.3713 63.375 68.001C63.375 76.6306 70.3701 83.626 78.9995 83.626C87.6299 83.626 94.625 76.6306 94.625 68.001L94.625 68.001M76.4609 59.1018C76.4775 58.0806 77.3105 57.2578 78.3359 57.2578L78.3667 57.2581C79.3882 57.2747 80.2109 58.1077 80.2109 59.1328L80.2109 67.6877L86.0703 67.6877L86.1011 67.6882C87.1226 67.7046 87.9453 68.5376 87.9453 69.563C87.9453 70.5986 87.106 71.438 86.0703 71.438L78.3359 71.438L78.3047 71.4377C77.2837 71.4211 76.4609 70.5881 76.4609 69.563L76.4609 59.1328L76.4609 59.1018Z" fill-rule="evenodd" fill="#222222" fill-opacity="1.000000"/>
			<g clip-path="url(#clip320_37936)">
				<path d="M78.9927 220.096C70.7114 220.096 63.998 213.362 63.998 205.055C63.998 196.748 70.7114 190.014 78.9927 190.014C87.2734 190.014 93.9868 196.748 93.9868 205.055C93.9868 213.362 87.2734 220.096 78.9927 220.096L78.9927 220.096Z" stroke="#222222" stroke-width="3.332382"/>
				<path d="M78.9927 196.698L78.9927 205.055L86.9062 205.055" stroke="#222222" stroke-width="3.332382"/>
			</g>
			<path d="M81.3477 111.246L82.4023 110.785C83.1406 111.664 83.7969 112.625 84.3555 113.68L83.332 114.223C82.7227 113.105 82.0664 112.113 81.3477 111.246ZM75.8593 123.922C75.8593 124.93 75.3633 125.441 74.3711 125.441L71.5703 125.441L71.332 124.32C72.2617 124.352 73.1406 124.383 73.9883 124.383C74.4531 124.383 74.6914 124.129 74.6914 123.633L74.6914 114.977L69.1562 114.977L69.1562 113.871L74.6914 113.871L74.6914 111.055L75.8593 111.055L75.8593 113.871L77.8281 113.871L77.8281 114.977L75.8593 114.977L75.8593 123.922ZM92.8828 123.777C92.8828 124.895 92.3398 125.473 91.2695 125.473L89.9258 125.473L89.6367 124.398L91.0273 124.434C91.5078 124.434 91.7656 124.098 91.7656 123.457L91.7656 112.801L85.5547 112.801L85.5547 111.727L92.8828 111.727L92.8828 123.777ZM63.8125 112.129L68.4218 112.129L68.4218 123.922L67.3008 123.922L67.3008 122.848L64.9336 122.848L64.9336 124.305L63.8125 124.305L63.8125 112.129ZM64.9336 113.184L64.9336 116.848L67.3008 116.848L67.3008 113.184L64.9336 113.184ZM80.0859 125.617L80.0859 113.586L81.2031 113.586L81.2031 125.617L80.0859 125.617ZM83.3945 122.719L83.3945 115.266L89.4766 115.266L89.4766 122.719L83.3945 122.719ZM84.4844 116.289L84.4844 118.48L88.4023 118.48L88.4023 116.289L84.4844 116.289ZM69.7812 117.488L70.7226 116.895C71.7148 118.398 72.4843 119.711 73.0117 120.832L72.0508 121.504C71.4922 120.305 70.7383 118.961 69.7812 117.488ZM64.9336 117.922L64.9336 121.777L67.3008 121.777L67.3008 117.922L64.9336 117.922ZM84.4844 121.695L88.4023 121.695L88.4023 119.504L84.4844 119.504L84.4844 121.695Z" fill="#9298B5"/>
			<path d="M81.3477 248.246L82.4023 247.785C83.1406 248.664 83.7969 249.625 84.3555 250.68L83.332 251.223C82.7227 250.105 82.0664 249.113 81.3477 248.246ZM75.8593 260.922C75.8593 261.93 75.3633 262.441 74.3711 262.441L71.5703 262.441L71.332 261.32C72.2617 261.352 73.1406 261.383 73.9883 261.383C74.4531 261.383 74.6914 261.129 74.6914 260.633L74.6914 251.977L69.1562 251.977L69.1562 250.871L74.6914 250.871L74.6914 248.055L75.8593 248.055L75.8593 250.871L77.8281 250.871L77.8281 251.977L75.8593 251.977L75.8593 260.922ZM92.8828 260.777C92.8828 261.895 92.3398 262.473 91.2695 262.473L89.9258 262.473L89.6367 261.398L91.0273 261.434C91.5078 261.434 91.7656 261.098 91.7656 260.457L91.7656 249.801L85.5547 249.801L85.5547 248.727L92.8828 248.727L92.8828 260.777ZM63.8125 249.129L68.4218 249.129L68.4218 260.922L67.3008 260.922L67.3008 259.848L64.9336 259.848L64.9336 261.305L63.8125 261.305L63.8125 249.129ZM64.9336 250.184L64.9336 253.848L67.3008 253.848L67.3008 250.184L64.9336 250.184ZM80.0859 262.617L80.0859 250.586L81.2031 250.586L81.2031 262.617L80.0859 262.617ZM83.3945 259.719L83.3945 252.266L89.4766 252.266L89.4766 259.719L83.3945 259.719ZM84.4844 253.289L84.4844 255.48L88.4023 255.48L88.4023 253.289L84.4844 253.289ZM69.7812 254.488L70.7226 253.895C71.7148 255.398 72.4843 256.711 73.0117 257.832L72.0508 258.504C71.4922 257.305 70.7383 255.961 69.7812 254.488ZM64.9336 254.922L64.9336 258.777L67.3008 258.777L67.3008 254.922L64.9336 254.922ZM84.4844 258.695L88.4023 258.695L88.4023 256.504L84.4844 256.504L84.4844 258.695Z" fill="#9298B5"/>
			<g opacity="0.000100">
				<rect x="150.000000" y="48.000000" width="40.000000" height="40.000000" fill="#222222"/>
			</g>
			<path d="M168.469 54.51C169.956 53.6594 171.85 54.1558 172.725 55.6162L172.751 55.6606L185.208 77.2297C185.48 77.7026 185.625 78.239 185.625 78.7852C185.625 80.4919 184.249 81.8787 182.54 81.9062L182.488 81.9067L157.511 81.9067C156.96 81.9067 156.419 81.7625 155.942 81.488C154.458 80.6343 153.939 78.7544 154.77 77.2686L154.796 77.2236L167.316 55.6548C167.593 55.1782 167.991 54.7834 168.469 54.51L168.469 54.51M168.112 63.1462C168.128 62.1262 168.964 61.3044 169.993 61.3044C171.032 61.3044 171.875 62.1431 171.875 63.1772L171.875 70.9421L171.875 70.9731C171.858 71.9932 171.022 72.8149 169.993 72.8149C168.954 72.8149 168.111 71.9766 168.111 70.9421L168.111 63.1772L168.112 63.1462M169.993 74.0637C168.78 74.0637 167.797 75.0422 167.797 76.2488C167.797 77.4556 168.78 78.4341 169.993 78.4341C171.206 78.4341 172.188 77.4556 172.188 76.2488C172.188 75.0422 171.206 74.064 169.993 74.064L169.993 74.0637Z" fill-rule="evenodd" fill="#222222" fill-opacity="1.000000"/>
			<g clip-path="url(#clip320_37949)">
				<path d="M151.666 220.931L188.319 220.931L169.993 189.178L151.666 220.931Z" stroke="#222222" stroke-width="3.332382" stroke-linejoin="round"/>
				<path d="M169.993 214.248L169.993 215.081" stroke="#222222" stroke-width="3.332382" stroke-linecap="square"/>
				<path d="M169.993 200.89L170 209.22" stroke="#222222" stroke-width="3.332382" stroke-linecap="square"/>
			</g>
			<path d="M164.461 115.633C163.949 115.152 163.578 114.641 163.324 114.098C163.035 114.496 162.699 114.863 162.348 115.184L161.707 114.383Q163.125 113.041 163.629 110.785L164.684 110.977C164.605 111.297 164.523 111.586 164.43 111.871L168.234 111.871L168.234 112.832L167.34 112.832C167.102 113.953 166.652 114.863 166.012 115.586C166.73 116.016 167.598 116.383 168.59 116.688L168.059 117.617C166.941 117.246 165.996 116.801 165.262 116.289C164.477 116.863 163.531 117.297 162.43 117.551L161.996 116.625C162.988 116.398 163.805 116.078 164.461 115.633ZM154.668 112.449L154.668 111.602L156.605 111.602L156.605 110.879L157.562 110.879L157.562 111.602L159.309 111.602L159.309 110.879L160.27 110.879L160.27 111.602L162.187 111.602L162.187 112.449L160.27 112.449L160.27 113.168L159.309 113.168L159.309 112.449L157.562 112.449L157.562 113.168L156.73 113.168C156.699 113.297 156.652 113.426 156.605 113.551L161.676 113.551C161.676 115.406 161.547 116.543 161.324 116.961C161.262 117.07 161.18 117.168 161.102 117.23L161.723 117.137C161.883 117.441 162.027 117.777 162.187 118.16L168.41 118.16L168.41 119.008L154.605 119.008L154.605 118.16L161.102 118.16C160.973 117.887 160.828 117.648 160.699 117.457C160.492 117.52 160.27 117.566 160.012 117.586L159.355 117.586L159.227 117.152L155.996 117.152L155.996 114.961L159.402 114.961L159.402 116.832L159.805 116.832C160.156 116.801 160.379 116.656 160.477 116.367C160.555 116.078 160.605 115.391 160.621 114.336L156.285 114.336C155.934 115.039 155.469 115.633 154.891 116.113L154.27 115.344C155.02 114.734 155.531 113.922 155.805 112.895L156.605 113.023L156.605 112.449L154.668 112.449ZM177.117 114.289L173.293 114.289C172.746 115.023 172.109 115.711 171.355 116.336L170.668 115.426C172.109 114.273 173.102 112.848 173.613 111.168L174.766 111.297C174.555 111.969 174.301 112.594 173.98 113.184L177.117 113.184L177.117 110.91L178.285 110.91L178.285 113.184L183.516 113.184L183.516 114.289L178.285 114.289L178.285 116.879L184.73 116.879L184.73 118.016L170.27 118.016L170.27 116.879L177.117 116.879L177.117 114.289ZM166.332 112.832L164.043 112.832C163.98 112.945 163.934 113.039 163.898 113.137C164.125 113.84 164.555 114.465 165.195 115.008C165.758 114.398 166.141 113.664 166.332 112.832ZM156.859 116.512L158.523 116.512L158.523 115.586L156.859 115.586L156.859 116.512ZM172.332 119.695L182.766 119.695L182.766 125.586L181.598 125.586L181.598 124.734L173.5 124.734L173.5 125.586L172.332 125.586L172.332 119.695ZM156.555 120.465L156.555 119.762L166.59 119.762L166.59 120.465L156.555 120.465ZM173.5 120.801L173.5 123.648L181.598 123.648L181.598 120.801L173.5 120.801ZM156.555 121.902L156.555 121.199L166.59 121.199L166.59 121.902L156.555 121.902ZM156.074 122.688L167.102 122.688L167.102 125.727L165.98 125.727L165.98 125.246L157.195 125.246L157.195 125.727L156.074 125.727L156.074 122.688ZM157.195 123.457L157.195 124.465L165.98 124.465L165.98 123.457L157.195 123.457Z" fill="#9298B5"/>
			<path d="M164.461 252.633C163.949 252.152 163.578 251.641 163.324 251.098C163.035 251.496 162.699 251.863 162.348 252.184L161.707 251.383Q163.125 250.041 163.629 247.785L164.684 247.977C164.605 248.297 164.523 248.586 164.43 248.871L168.234 248.871L168.234 249.832L167.34 249.832C167.102 250.953 166.652 251.863 166.012 252.586C166.73 253.016 167.598 253.383 168.59 253.688L168.059 254.617C166.941 254.246 165.996 253.801 165.262 253.289C164.477 253.863 163.531 254.297 162.43 254.551L161.996 253.625C162.988 253.398 163.805 253.078 164.461 252.633ZM154.668 249.449L154.668 248.602L156.605 248.602L156.605 247.879L157.562 247.879L157.562 248.602L159.309 248.602L159.309 247.879L160.27 247.879L160.27 248.602L162.187 248.602L162.187 249.449L160.27 249.449L160.27 250.168L159.309 250.168L159.309 249.449L157.562 249.449L157.562 250.168L156.73 250.168C156.699 250.297 156.652 250.426 156.605 250.551L161.676 250.551C161.676 252.406 161.547 253.543 161.324 253.961C161.262 254.07 161.18 254.168 161.102 254.23L161.723 254.137C161.883 254.441 162.027 254.777 162.187 255.16L168.41 255.16L168.41 256.008L154.605 256.008L154.605 255.16L161.102 255.16C160.973 254.887 160.828 254.648 160.699 254.457C160.492 254.52 160.27 254.566 160.012 254.586L159.355 254.586L159.227 254.152L155.996 254.152L155.996 251.961L159.402 251.961L159.402 253.832L159.805 253.832C160.156 253.801 160.379 253.656 160.477 253.367C160.555 253.078 160.605 252.391 160.621 251.336L156.285 251.336C155.934 252.039 155.469 252.633 154.891 253.113L154.27 252.344C155.02 251.734 155.531 250.922 155.805 249.895L156.605 250.023L156.605 249.449L154.668 249.449ZM177.117 251.289L173.293 251.289C172.746 252.023 172.109 252.711 171.355 253.336L170.668 252.426C172.109 251.273 173.102 249.848 173.613 248.168L174.766 248.297C174.555 248.969 174.301 249.594 173.98 250.184L177.117 250.184L177.117 247.91L178.285 247.91L178.285 250.184L183.516 250.184L183.516 251.289L178.285 251.289L178.285 253.879L184.73 253.879L184.73 255.016L170.27 255.016L170.27 253.879L177.117 253.879L177.117 251.289ZM166.332 249.832L164.043 249.832C163.98 249.945 163.934 250.039 163.898 250.137C164.125 250.84 164.555 251.465 165.195 252.008C165.758 251.398 166.141 250.664 166.332 249.832ZM156.859 253.512L158.523 253.512L158.523 252.586L156.859 252.586L156.859 253.512ZM172.332 256.695L182.766 256.695L182.766 262.586L181.598 262.586L181.598 261.734L173.5 261.734L173.5 262.586L172.332 262.586L172.332 256.695ZM156.555 257.465L156.555 256.762L166.59 256.762L166.59 257.465L156.555 257.465ZM173.5 257.801L173.5 260.648L181.598 260.648L181.598 257.801L173.5 257.801ZM156.555 258.902L156.555 258.199L166.59 258.199L166.59 258.902L156.555 258.902ZM156.074 259.688L167.102 259.688L167.102 262.727L165.98 262.727L165.98 262.246L157.195 262.246L157.195 262.727L156.074 262.727L156.074 259.688ZM157.195 260.457L157.195 261.465L165.98 261.465L165.98 260.457L157.195 260.457Z" fill="#9298B5"/>
			<g opacity="0.000100">
				<rect x="241.000000" y="48.000000" width="40.000000" height="40.000000" fill="#222222"/>
			</g>
			<path d="M260.98 52.4097C262.017 52.4097 262.856 53.2493 262.856 54.2852L262.857 54.6492C267.495 55.5112 271.006 59.5776 271.006 64.4639L271.006 76.01L271.612 76.01C272.648 76.01 273.488 76.8496 273.488 77.8855C273.488 78.9211 272.648 79.761 271.612 79.761L263.157 79.761C263.165 79.8379 263.169 79.9163 263.169 79.9954L263.169 81.4412C263.169 82.6497 262.189 83.6292 260.98 83.6292C259.771 83.6292 258.792 82.6497 258.792 81.4412L258.792 79.9954C258.792 79.9163 258.796 79.8379 258.804 79.761L250.388 79.761C249.352 79.761 248.512 78.9211 248.512 77.8855C248.512 76.8496 249.352 76.01 250.388 76.01L251.033 76.01L251.033 64.4639C251.033 59.605 254.505 55.5569 259.104 54.6641L259.104 54.2852C259.104 53.2493 259.944 52.4097 260.98 52.4097L260.98 52.4097Z" fill-rule="evenodd" fill="#222222"/>
			<g clip-path="url(#clip320_37961)">
				<path d="M271.822 203.383L271.822 214.246L250.163 214.246L250.163 203.383C250.163 197.384 255.011 192.52 260.993 192.52C266.974 192.52 271.822 197.384 271.822 203.383L271.822 203.383M260.993 192.52L260.993 188.342M245.998 214.246L275.987 214.246M255.161 220.096L266.824 220.096" stroke="#222222" stroke-width="3.332382"/>
			</g>
			<path d="M248.516 124.098C248.516 124.992 248.051 125.457 247.141 125.457L245.699 125.457L245.461 124.336C245.906 124.367 246.324 124.398 246.738 124.398C247.125 124.398 247.332 124.191 247.332 123.793L247.332 119.887C246.723 120.129 246.102 120.352 245.477 120.543L245.203 119.391C245.926 119.215 246.629 118.992 247.332 118.719L247.332 115.105L245.395 115.105L245.395 114L247.332 114L247.332 110.977L248.516 110.977L248.516 114L250.133 114L250.133 115.105L248.516 115.105L248.516 118.223C248.98 118 249.445 117.777 249.891 117.52L249.891 118.688C249.445 118.93 248.98 119.152 248.516 119.375L248.516 124.098ZM251.379 117.039L251.379 111.488L258.355 111.488L258.355 117.039L251.379 117.039ZM268.645 116.91L268.645 111.52L275.094 111.52L275.094 116.91L268.645 116.91ZM266.547 125.504L266.547 124.625L262.676 124.625L262.676 125.504L261.746 125.504L261.746 114.527L263.301 114.527L263.301 112.609L261.254 112.609L261.254 111.586L267.797 111.586L267.797 112.609L265.941 112.609L265.941 114.527L267.477 114.527L267.477 125.504L266.547 125.504ZM252.5 112.434L252.5 113.824L257.234 113.824L257.234 112.434L252.5 112.434ZM269.715 112.449L269.715 113.762L274.004 113.762L274.004 112.449L269.715 112.449ZM264.195 114.527L265.043 114.527L265.043 112.609L264.195 112.609L264.195 114.527ZM269.715 115.984L274.004 115.984L274.004 114.688L269.715 114.688L269.715 115.984ZM252.5 116.098L257.234 116.098L257.234 114.719L252.5 114.719L252.5 116.098ZM262.676 121.055L266.547 121.055L266.547 119.566L265.766 119.566C265.27 119.566 265.027 119.281 265.027 118.734L265.027 115.488L264.242 115.488L264.242 116.559C264.227 118.258 263.859 119.504 263.156 120.289L262.676 119.871L262.676 121.055ZM262.676 115.488L262.676 119.793C263.27 119.09 263.57 118.016 263.59 116.559L263.59 115.488L262.676 115.488ZM266.547 115.488L265.699 115.488L265.699 118.574C265.699 118.734 265.781 118.832 265.941 118.832L266.547 118.832L266.547 115.488ZM271.508 119.695L269.508 119.695C269.188 120.398 268.789 121.055 268.324 121.633L267.668 120.77C268.402 119.855 268.898 118.734 269.156 117.391L270.164 117.504C270.082 117.922 269.988 118.32 269.875 118.688L271.508 118.688L271.508 117.406L272.613 117.406L272.613 118.688L275.363 118.688L275.363 119.695L272.613 119.695L272.613 121.375L275.012 121.375L275.012 122.383L272.613 122.383L272.613 124.129L275.766 124.129L275.766 125.215L268.164 125.215L268.164 124.129L271.508 124.129L271.508 122.383L269.059 122.383L269.059 121.375L271.508 121.375L271.508 119.695ZM250.262 119.184L250.262 118.16L259.41 118.16L259.41 119.184L255.41 119.184L255.41 120.992L258.758 120.992L258.758 122.031L255.41 122.031L255.41 124.098C256.051 124.191 256.805 124.238 257.684 124.238C258.516 124.238 259.234 124.207 259.828 124.16L259.508 125.281C258.867 125.281 258.277 125.266 257.766 125.266C255.652 125.246 254.211 125.039 253.445 124.656C252.836 124.336 252.277 123.727 251.797 122.832C251.41 123.824 250.883 124.734 250.195 125.566L249.348 124.832C250.562 123.359 251.234 121.695 251.363 119.871L252.387 119.984C252.355 120.559 252.277 121.105 252.148 121.648C252.66 122.719 253.254 123.406 253.926 123.711C254.035 123.762 254.164 123.809 254.309 123.855L254.309 119.184L250.262 119.184ZM266.547 122L262.676 122L262.676 123.633L266.547 123.633L266.547 122Z" fill="#9298B5"/>
			<path d="M248.516 261.098C248.516 261.992 248.051 262.457 247.141 262.457L245.699 262.457L245.461 261.336C245.906 261.367 246.324 261.398 246.738 261.398C247.125 261.398 247.332 261.191 247.332 260.793L247.332 256.887C246.723 257.129 246.102 257.352 245.477 257.543L245.203 256.391C245.926 256.215 246.629 255.992 247.332 255.719L247.332 252.105L245.395 252.105L245.395 251L247.332 251L247.332 247.977L248.516 247.977L248.516 251L250.133 251L250.133 252.105L248.516 252.105L248.516 255.223C248.98 255 249.445 254.777 249.891 254.52L249.891 255.688C249.445 255.93 248.98 256.152 248.516 256.375L248.516 261.098ZM251.379 254.039L251.379 248.488L258.355 248.488L258.355 254.039L251.379 254.039ZM268.645 253.91L268.645 248.52L275.094 248.52L275.094 253.91L268.645 253.91ZM266.547 262.504L266.547 261.625L262.676 261.625L262.676 262.504L261.746 262.504L261.746 251.527L263.301 251.527L263.301 249.609L261.254 249.609L261.254 248.586L267.797 248.586L267.797 249.609L265.941 249.609L265.941 251.527L267.477 251.527L267.477 262.504L266.547 262.504ZM252.5 249.434L252.5 250.824L257.234 250.824L257.234 249.434L252.5 249.434ZM269.715 249.449L269.715 250.762L274.004 250.762L274.004 249.449L269.715 249.449ZM264.195 251.527L265.043 251.527L265.043 249.609L264.195 249.609L264.195 251.527ZM269.715 252.984L274.004 252.984L274.004 251.688L269.715 251.688L269.715 252.984ZM252.5 253.098L257.234 253.098L257.234 251.719L252.5 251.719L252.5 253.098ZM262.676 258.055L266.547 258.055L266.547 256.566L265.766 256.566C265.27 256.566 265.027 256.281 265.027 255.734L265.027 252.488L264.242 252.488L264.242 253.559C264.227 255.258 263.859 256.504 263.156 257.289L262.676 256.871L262.676 258.055ZM262.676 252.488L262.676 256.793C263.27 256.09 263.57 255.016 263.59 253.559L263.59 252.488L262.676 252.488ZM266.547 252.488L265.699 252.488L265.699 255.574C265.699 255.734 265.781 255.832 265.941 255.832L266.547 255.832L266.547 252.488ZM271.508 256.695L269.508 256.695C269.188 257.398 268.789 258.055 268.324 258.633L267.668 257.77C268.402 256.855 268.898 255.734 269.156 254.391L270.164 254.504C270.082 254.922 269.988 255.32 269.875 255.688L271.508 255.688L271.508 254.406L272.613 254.406L272.613 255.688L275.363 255.688L275.363 256.695L272.613 256.695L272.613 258.375L275.012 258.375L275.012 259.383L272.613 259.383L272.613 261.129L275.766 261.129L275.766 262.215L268.164 262.215L268.164 261.129L271.508 261.129L271.508 259.383L269.059 259.383L269.059 258.375L271.508 258.375L271.508 256.695ZM250.262 256.184L250.262 255.16L259.41 255.16L259.41 256.184L255.41 256.184L255.41 257.992L258.758 257.992L258.758 259.031L255.41 259.031L255.41 261.098C256.051 261.191 256.805 261.238 257.684 261.238C258.516 261.238 259.234 261.207 259.828 261.16L259.508 262.281C258.867 262.281 258.277 262.266 257.766 262.266C255.652 262.246 254.211 262.039 253.445 261.656C252.836 261.336 252.277 260.727 251.797 259.832C251.41 260.824 250.883 261.734 250.195 262.566L249.348 261.832C250.562 260.359 251.234 258.695 251.363 256.871L252.387 256.984C252.355 257.559 252.277 258.105 252.148 258.648C252.66 259.719 253.254 260.406 253.926 260.711C254.035 260.762 254.164 260.809 254.309 260.855L254.309 256.184L250.262 256.184ZM266.547 259L262.676 259L262.676 260.633L266.547 260.633L266.547 259Z" fill="#9298B5"/>
			<g opacity="0.000100">
				<rect x="332.000000" y="48.000000" width="40.000000" height="40.000000" fill="#222222"/>
			</g>
			<path d="M352.035 57.9995C357.509 57.9995 362.596 61.0251 367.296 67.0764C367.731 67.6365 367.734 68.4185 367.306 68.9812L367.292 68.9983L367.151 69.1772C362.492 75.0588 357.453 77.9995 352.035 77.9995C346.565 77.9995 341.457 75.0012 336.712 69.0044C336.269 68.4436 336.263 67.6543 336.695 67.0872L336.708 67.0701L336.851 66.8896C341.557 60.9629 346.618 57.9995 352.035 57.9995L352.035 57.9995M351.996 60.5C347.851 60.5 344.491 63.8579 344.491 68C344.491 72.1421 347.851 75.5 351.996 75.5C356.141 75.5 359.5 72.1421 359.5 68C359.5 63.8579 356.141 60.5 351.996 60.5L351.996 60.5M357 68C357 65.2385 354.76 63 351.997 63L351.996 63C349.233 63 346.993 65.2385 346.993 68C346.993 70.7615 349.233 73 351.997 73C354.76 73 357 70.7615 357 68L357 68Z" fill-rule="evenodd" fill="#222222" fill-opacity="1.000000"/>
			<g clip-path="url(#clip320_37973)">
				<path d="M366.987 205.055C362.511 197.812 357.513 194.192 351.993 194.192C346.472 194.192 341.474 197.812 336.998 205.055C341.474 212.297 346.472 215.918 351.993 215.918C357.513 215.918 362.511 212.297 366.987 205.055L366.987 205.055Z" stroke="#222222" stroke-width="3.332386"/>
				<path d="M354.938 208.009C354.157 208.792 353.098 209.233 351.993 209.233C350.888 209.233 349.829 208.792 349.047 208.009C348.267 207.226 347.828 206.163 347.828 205.055C347.828 203.947 348.267 202.884 349.047 202.1C349.829 201.317 350.888 200.877 351.993 200.877C353.098 200.877 354.157 201.317 354.938 202.1C355.719 202.884 356.158 203.947 356.158 205.055C356.158 206.163 355.719 207.226 354.938 208.009L354.938 208.009Z" stroke="#222222" stroke-width="3.332386"/>
			</g>
			<path d="M366.41 113.184L361.211 113.184C360.699 114.16 360.094 114.977 359.402 115.617L358.539 114.816C359.629 113.742 360.445 112.398 360.973 110.801L362.074 111.09C361.949 111.457 361.82 111.809 361.691 112.145L366.41 112.145L366.41 113.184ZM356.539 116.129L356.539 110.93L357.676 110.93L357.676 116.129L356.539 116.129ZM337.066 114.129L337.914 113.602C338.348 114.016 338.746 114.418 339.102 114.801C339.676 114.176 340.203 113.457 340.684 112.656L336.652 112.656L336.652 111.586L341.914 111.586L341.914 112.496C341.262 113.68 340.539 114.688 339.773 115.535C340.074 115.887 340.332 116.207 340.555 116.496L342.379 116.496L342.379 117.199C342.125 118.449 341.805 119.426 341.453 120.129L340.508 119.762C340.797 119.152 341.066 118.434 341.293 117.566L339.598 117.566L339.598 124.258C339.598 125.09 339.18 125.52 338.379 125.52L336.844 125.52L336.621 124.48C337.102 124.527 337.562 124.559 338.012 124.559C338.332 124.559 338.508 124.367 338.508 123.984L338.508 117.566L336.203 117.566L336.203 116.496L339.309 116.496C338.684 115.762 337.934 114.961 337.066 114.129ZM342.828 112.672L342.828 111.586L350.766 111.586L350.766 112.672L347.516 112.672C347.437 113.297 347.324 113.887 347.195 114.465L350.219 114.465L350.219 122L349.133 122L349.133 115.488L344.508 115.488L344.508 122L343.422 122L343.422 114.465L346.094 114.465C346.219 113.887 346.316 113.281 346.379 112.672L342.828 112.672ZM353.402 115.727L353.402 111.602L354.508 111.602L354.508 115.727L353.402 115.727ZM361.914 114.352L362.637 113.68C363.562 114.223 364.43 114.879 365.227 115.648L364.523 116.465C363.707 115.648 362.844 114.945 361.914 114.352ZM346.219 119.281L346.219 116.398L347.34 116.398L347.34 119.281C347.293 120.992 346.906 122.352 346.187 123.359C345.484 124.305 344.348 125.039 342.766 125.586L342.141 124.609C343.66 124.113 344.73 123.457 345.34 122.625C345.883 121.762 346.187 120.656 346.219 119.281ZM355.066 116.801L363.676 116.801L363.676 122.496L362.539 122.496L362.539 117.855L356.219 117.855L356.219 122.527L355.066 122.527L355.066 116.801ZM358.684 119.984L358.684 118.879L359.82 118.879L359.82 119.984C359.758 121.535 359.211 122.785 358.188 123.711C357.18 124.559 355.531 125.23 353.242 125.711L352.59 124.688C354.859 124.238 356.445 123.664 357.355 122.945C358.188 122.176 358.621 121.199 358.684 119.984ZM365.898 124.961C365.613 125.215 365.18 125.344 364.57 125.344L361.469 125.344C360.477 125.344 359.98 124.832 359.98 123.824L359.98 120.754L361.082 120.754L361.082 123.586C361.082 124.047 361.324 124.289 361.805 124.289L364.363 124.289C364.699 124.289 364.941 124.191 365.102 124.016C365.293 123.793 365.422 123.168 365.484 122.113L366.539 122.449C366.445 123.824 366.219 124.656 365.898 124.961ZM347.211 122.719L347.949 122C349.133 122.93 350.125 123.855 350.926 124.785L350.125 125.586C349.422 124.688 348.445 123.727 347.211 122.719Z" fill="#9298B5"/>
			<path d="M366.41 250.184L361.211 250.184C360.699 251.16 360.094 251.977 359.402 252.617L358.539 251.816C359.629 250.742 360.445 249.398 360.973 247.801L362.074 248.09C361.949 248.457 361.82 248.809 361.691 249.145L366.41 249.145L366.41 250.184ZM356.539 253.129L356.539 247.93L357.676 247.93L357.676 253.129L356.539 253.129ZM337.066 251.129L337.914 250.602C338.348 251.016 338.746 251.418 339.102 251.801C339.676 251.176 340.203 250.457 340.684 249.656L336.652 249.656L336.652 248.586L341.914 248.586L341.914 249.496C341.262 250.68 340.539 251.688 339.773 252.535C340.074 252.887 340.332 253.207 340.555 253.496L342.379 253.496L342.379 254.199C342.125 255.449 341.805 256.426 341.453 257.129L340.508 256.762C340.797 256.152 341.066 255.434 341.293 254.566L339.598 254.566L339.598 261.258C339.598 262.09 339.18 262.52 338.379 262.52L336.844 262.52L336.621 261.48C337.102 261.527 337.562 261.559 338.012 261.559C338.332 261.559 338.508 261.367 338.508 260.984L338.508 254.566L336.203 254.566L336.203 253.496L339.309 253.496C338.684 252.762 337.934 251.961 337.066 251.129ZM342.828 249.672L342.828 248.586L350.766 248.586L350.766 249.672L347.516 249.672C347.437 250.297 347.324 250.887 347.195 251.465L350.219 251.465L350.219 259L349.133 259L349.133 252.488L344.508 252.488L344.508 259L343.422 259L343.422 251.465L346.094 251.465C346.219 250.887 346.316 250.281 346.379 249.672L342.828 249.672ZM353.402 252.727L353.402 248.602L354.508 248.602L354.508 252.727L353.402 252.727ZM361.914 251.352L362.637 250.68C363.562 251.223 364.43 251.879 365.227 252.648L364.523 253.465C363.707 252.648 362.844 251.945 361.914 251.352ZM346.219 256.281L346.219 253.398L347.34 253.398L347.34 256.281C347.293 257.992 346.906 259.352 346.187 260.359C345.484 261.305 344.348 262.039 342.766 262.586L342.141 261.609C343.66 261.113 344.73 260.457 345.34 259.625C345.883 258.762 346.187 257.656 346.219 256.281ZM355.066 253.801L363.676 253.801L363.676 259.496L362.539 259.496L362.539 254.855L356.219 254.855L356.219 259.527L355.066 259.527L355.066 253.801ZM358.684 256.984L358.684 255.879L359.82 255.879L359.82 256.984C359.758 258.535 359.211 259.785 358.188 260.711C357.18 261.559 355.531 262.23 353.242 262.711L352.59 261.688C354.859 261.238 356.445 260.664 357.355 259.945C358.188 259.176 358.621 258.199 358.684 256.984ZM365.898 261.961C365.613 262.215 365.18 262.344 364.57 262.344L361.469 262.344C360.477 262.344 359.98 261.832 359.98 260.824L359.98 257.754L361.082 257.754L361.082 260.586C361.082 261.047 361.324 261.289 361.805 261.289L364.363 261.289C364.699 261.289 364.941 261.191 365.102 261.016C365.293 260.793 365.422 260.168 365.484 259.113L366.539 259.449C366.445 260.824 366.219 261.656 365.898 261.961ZM347.211 259.719L347.949 259C349.133 259.93 350.125 260.855 350.926 261.785L350.125 262.586C349.422 261.688 348.445 260.727 347.211 259.719Z" fill="#9298B5"/>
			<g opacity="0.000100">
				<rect x="423.000000" y="48.000000" width="40.000000" height="40.000000" fill="#222222"/>
			</g>
			<path d="M445.219 54.25C446.073 54.25 446.767 54.9358 446.781 55.7869L446.781 80.187C446.781 80.4666 446.706 80.741 446.564 80.9814C446.13 81.7173 445.187 81.9666 444.447 81.5457L444.425 81.5327L432.099 74.251L432.099 74.1729L427.062 74.1729C426.199 74.1729 425.5 73.4731 425.5 72.6101L425.5 63.3115C425.5 62.4485 426.199 61.7488 427.062 61.7488L432.099 61.7488L444.425 54.467C444.666 54.325 444.939 54.25 445.219 54.25L445.219 54.25M456.36 57.5117L456.377 57.5303C456.814 58.0366 465.441 68.3279 456.36 78.4895C456.061 78.825 455.645 78.9958 455.228 78.9958C454.868 78.9958 454.507 78.8687 454.217 78.6096C453.592 78.051 453.538 77.0911 454.097 76.4658C461.426 68.2642 454.687 60.2095 454.124 59.5652L454.097 59.5352C453.538 58.9102 453.592 57.9502 454.217 57.3914C454.842 56.8325 455.801 56.8862 456.36 57.5117L456.36 57.5117M451.775 74.4272C456.318 69.3435 453.762 63.7961 451.775 61.5732C451.218 60.9502 450.265 60.8967 449.64 61.4509C449.014 62.0051 448.956 62.9634 449.507 63.5916L449.535 63.6233C450.04 64.2117 453.225 68.2483 449.512 72.4038L449.495 72.4226C448.954 73.0481 449.013 73.9944 449.632 74.5476C449.91 74.7966 450.27 74.9343 450.643 74.9338C451.06 74.9338 451.476 74.7629 451.775 74.4272L451.775 74.4272Z" fill-rule="evenodd" fill="#222222" fill-opacity="1.000000"/>
			<g clip-path="url(#clip320_37985)">
				<path d="M442.993 190.849L442.993 219.26L434.662 211.74L427.998 211.74L427.998 198.37L434.662 198.37L442.993 190.849Z" stroke="#222222" stroke-width="3.332382" stroke-linejoin="round"/>
				<path d="M448.883 199.146C452.136 202.409 452.136 207.7 448.883 210.963M453.595 194.419C459.452 200.293 459.452 209.817 453.595 215.69" stroke="#222222" stroke-width="3.332382"/>
			</g>
			<path d="M444.195 113.551L444.195 112.496L450.004 112.496C449.766 111.953 449.508 111.441 449.234 110.992L450.453 110.801C450.707 111.297 450.949 111.855 451.172 112.496L456.82 112.496L456.82 113.551L454.277 113.551C454.035 114.449 453.715 115.297 453.301 116.113L457.555 116.113L457.555 117.184L443.445 117.184L443.445 116.113L447.57 116.113C447.316 115.184 447.012 114.336 446.691 113.551L444.195 113.551ZM427.59 113.281L427.59 112.223L433.906 112.223L433.906 110.91L435.094 110.91L435.094 112.223L441.395 112.223L441.395 113.281L435.094 113.281L435.094 114.734L440.562 114.734L440.562 115.777L428.469 115.777L428.469 114.734L433.906 114.734L433.906 113.281L427.59 113.281ZM453.125 113.551L447.906 113.551C448.195 114.32 448.469 115.184 448.723 116.113L452.18 116.113C452.613 115.297 452.934 114.449 453.125 113.551ZM440.242 120.945L429.906 120.945C429.668 122.734 429.094 124.32 428.164 125.695L427.219 124.848C428.324 123.375 428.883 121.488 428.898 119.168L428.898 116.945L440.242 116.945L440.242 120.945ZM434.066 119.922L434.066 117.969L430.035 117.969L430.035 119.168C430.035 119.426 430.02 119.664 430.004 119.922L434.066 119.922ZM435.219 117.969L435.219 119.922L439.125 119.922L439.125 117.969L435.219 117.969ZM445.57 118.465L455.492 118.465L455.492 125.602L454.324 125.602L454.324 124.863L446.738 124.863L446.738 125.602L445.57 125.602L445.57 118.465ZM446.738 119.488L446.738 121.184L454.324 121.184L454.324 119.488L446.738 119.488ZM446.738 122.176L446.738 123.84L454.324 123.84L454.324 122.176L446.738 122.176Z" fill="#9298B5"/>
			<path d="M444.195 250.551L444.195 249.496L450.004 249.496C449.766 248.953 449.508 248.441 449.234 247.992L450.453 247.801C450.707 248.297 450.949 248.855 451.172 249.496L456.82 249.496L456.82 250.551L454.277 250.551C454.035 251.449 453.715 252.297 453.301 253.113L457.555 253.113L457.555 254.184L443.445 254.184L443.445 253.113L447.57 253.113C447.316 252.184 447.012 251.336 446.691 250.551L444.195 250.551ZM427.59 250.281L427.59 249.223L433.906 249.223L433.906 247.91L435.094 247.91L435.094 249.223L441.395 249.223L441.395 250.281L435.094 250.281L435.094 251.734L440.562 251.734L440.562 252.777L428.469 252.777L428.469 251.734L433.906 251.734L433.906 250.281L427.59 250.281ZM453.125 250.551L447.906 250.551C448.195 251.32 448.469 252.184 448.723 253.113L452.18 253.113C452.613 252.297 452.934 251.449 453.125 250.551ZM440.242 257.945L429.906 257.945C429.668 259.734 429.094 261.32 428.164 262.695L427.219 261.848C428.324 260.375 428.883 258.488 428.898 256.168L428.898 253.945L440.242 253.945L440.242 257.945ZM434.066 256.922L434.066 254.969L430.035 254.969L430.035 256.168C430.035 256.426 430.02 256.664 430.004 256.922L434.066 256.922ZM435.219 254.969L435.219 256.922L439.125 256.922L439.125 254.969L435.219 254.969ZM445.57 255.465L455.492 255.465L455.492 262.602L454.324 262.602L454.324 261.863L446.738 261.863L446.738 262.602L445.57 262.602L445.57 255.465ZM446.738 256.488L446.738 258.184L454.324 258.184L454.324 256.488L446.738 256.488ZM446.738 259.176L446.738 260.84L454.324 260.84L454.324 259.176L446.738 259.176Z" fill="#9298B5"/>
			<g opacity="0.000100">
				<rect x="514.000000" y="48.000000" width="40.000000" height="40.000000" fill="#222222"/>
			</g>
			<path d="M538.808 64.8713C539.913 61.4915 540.164 58.4463 539.562 55.7361C538.657 51.6565 534.863 50.959 534.515 55.7361C534.283 58.9207 532.263 61.9658 528.666 64.8713L528.771 81.6121C528.771 82.689 529.641 83.5625 530.716 83.5647L542.647 83.5901C544.267 83.593 545.656 82.4333 545.943 80.8374L548.408 67.1711C548.429 67.0566 548.439 66.9404 548.439 66.824C548.439 65.7456 547.566 64.8713 546.49 64.8713L538.808 64.8713M526.595 66.3C526.595 65.5298 525.971 64.9053 525.202 64.9053L525.202 64.9055L520.955 64.9055C520.92 64.9055 520.886 64.9067 520.851 64.9092C520.083 64.9666 519.508 65.6355 519.565 66.4038L520.751 82.3381C520.805 83.0662 521.411 83.6294 522.141 83.6294L525.202 83.6294C525.971 83.6294 526.595 83.0049 526.595 82.2346L526.595 66.3Z" fill-rule="evenodd" fill="#222222" fill-opacity="1.000000"/>
			<g clip-path="url(#clip320_37997)">
				<path d="M519.831 199.205L519.831 220.931M544.174 218.678C544.031 218.782 543.557 219.26 543.38 219.26L525.662 219.26L525.662 200.876L528.161 200.876L535.994 190.663C536.21 190.632 536.973 190.369 537.149 190.499L539.261 192.062C540.141 192.712 540.784 193.635 541.091 194.687C541.399 195.74 541.354 196.865 540.963 197.889L539.824 200.876L547.542 200.876C547.804 200.876 548.062 200.938 548.296 201.057C548.45 201.27 549.144 202.019 549.186 202.279C549.228 202.538 549.208 202.804 549.128 203.054L544.174 218.678Z" stroke="#222222" stroke-width="3.332386"/>
			</g>
			<path d="M537.805 113.039L536.125 113.039C535.867 113.391 535.613 113.68 535.324 113.938L534.699 113.184C535.324 112.672 535.738 111.984 535.965 111.121L536.875 111.266C536.797 111.586 536.699 111.871 536.605 112.129L537.805 112.129L537.805 110.91L538.859 110.91L538.859 112.129L540.766 112.129L540.766 113.039L538.859 113.039L538.859 114.16L540.988 114.16L540.988 115.09L539.371 115.09L539.371 116.734C539.914 116.543 540.477 116.336 541.02 116.113L541.195 116.961C540.301 117.344 539.387 117.68 538.461 117.953L538.059 117.09C538.27 116.977 538.379 116.848 538.379 116.688L538.379 115.09L537.309 115.09C537.227 115.969 537.051 116.641 536.797 117.09C536.461 117.633 535.898 118.098 535.102 118.496L534.43 117.648C535.117 117.359 535.613 117.008 535.914 116.594C536.141 116.258 536.301 115.762 536.363 115.09L534.715 115.09L534.715 114.16L537.805 114.16L537.805 113.039ZM544.555 113.039L542.699 113.039C542.461 113.426 542.188 113.742 541.898 114.016L541.277 113.266C541.883 112.719 542.301 112 542.508 111.07L543.422 111.215C543.34 111.535 543.242 111.84 543.148 112.129L544.555 112.129L544.555 110.91L545.598 110.91L545.598 112.129L547.852 112.129L547.852 113.039L545.598 113.039L545.598 114.16L548.27 114.16L548.27 115.09L546.074 115.09L546.074 116.512C546.074 116.734 546.172 116.863 546.379 116.863L547.004 116.863C547.164 116.863 547.309 116.832 547.402 116.785C547.531 116.703 547.629 116.367 547.676 115.762L548.555 116.062C548.461 116.895 548.332 117.375 548.141 117.535C547.949 117.664 547.645 117.742 547.195 117.762L546.074 117.762C545.758 117.762 545.5 117.664 545.324 117.473C545.164 117.281 545.082 117.023 545.082 116.734L545.082 115.09L544.254 115.09C544.156 115.824 543.996 116.367 543.758 116.754C543.402 117.23 542.859 117.633 542.094 117.984L541.438 117.168C542.109 116.91 542.57 116.625 542.859 116.273C543.082 116 543.227 115.602 543.293 115.09L541.516 115.09L541.516 114.16L544.555 114.16L544.555 113.039ZM524.668 115.633L524.668 110.961L525.805 110.961L525.805 112.512L532.012 112.512L532.012 113.602L525.805 113.602L525.805 115.633L530.906 115.633L530.906 120.77L520.316 120.77L520.316 115.633L524.668 115.633ZM521.469 119.695L529.758 119.695L529.758 116.719L521.469 116.719L521.469 119.695ZM536.43 118.367L546.684 118.367L546.684 122.91L545.562 122.91L545.562 119.391L537.531 119.391L537.531 123.008L536.43 123.008L536.43 118.367ZM539.469 123.039C540.445 122.367 541.051 121.426 541.277 120.223L542.379 120.336C542.156 121.777 541.5 122.91 540.379 123.777C539.387 124.543 537.629 125.152 535.117 125.602L534.668 124.543C536.891 124.191 538.492 123.695 539.469 123.039ZM529.469 122.047L530.395 121.457C531.422 122.801 532.188 123.969 532.73 124.961L531.773 125.633C531.211 124.543 530.445 123.359 529.469 122.047ZM518.219 124.863C519.02 123.922 519.707 122.785 520.285 121.473L521.262 121.938C520.652 123.328 519.965 124.527 519.164 125.551L518.219 124.863ZM526.027 122L527.117 121.777C527.598 122.863 528.012 124.062 528.363 125.344L527.227 125.602C526.906 124.238 526.508 123.039 526.027 122ZM522.699 122.16L523.773 121.938C524.094 122.992 524.379 124.145 524.637 125.375L523.484 125.633C523.262 124.32 523.004 123.168 522.699 122.16ZM541.789 123.617L542.363 122.754C544.637 123.266 546.699 123.902 548.57 124.672L547.965 125.633C545.949 124.77 543.898 124.098 541.789 123.617Z" fill="#9298B5"/>
			<path d="M537.805 250.039L536.125 250.039C535.867 250.391 535.613 250.68 535.324 250.938L534.699 250.184C535.324 249.672 535.738 248.984 535.965 248.121L536.875 248.266C536.797 248.586 536.699 248.871 536.605 249.129L537.805 249.129L537.805 247.91L538.859 247.91L538.859 249.129L540.766 249.129L540.766 250.039L538.859 250.039L538.859 251.16L540.988 251.16L540.988 252.09L539.371 252.09L539.371 253.734C539.914 253.543 540.477 253.336 541.02 253.113L541.195 253.961C540.301 254.344 539.387 254.68 538.461 254.953L538.059 254.09C538.27 253.977 538.379 253.848 538.379 253.688L538.379 252.09L537.309 252.09C537.227 252.969 537.051 253.641 536.797 254.09C536.461 254.633 535.898 255.098 535.102 255.496L534.43 254.648C535.117 254.359 535.613 254.008 535.914 253.594C536.141 253.258 536.301 252.762 536.363 252.09L534.715 252.09L534.715 251.16L537.805 251.16L537.805 250.039ZM544.555 250.039L542.699 250.039C542.461 250.426 542.188 250.742 541.898 251.016L541.277 250.266C541.883 249.719 542.301 249 542.508 248.07L543.422 248.215C543.34 248.535 543.242 248.84 543.148 249.129L544.555 249.129L544.555 247.91L545.598 247.91L545.598 249.129L547.852 249.129L547.852 250.039L545.598 250.039L545.598 251.16L548.27 251.16L548.27 252.09L546.074 252.09L546.074 253.512C546.074 253.734 546.172 253.863 546.379 253.863L547.004 253.863C547.164 253.863 547.309 253.832 547.402 253.785C547.531 253.703 547.629 253.367 547.676 252.762L548.555 253.062C548.461 253.895 548.332 254.375 548.141 254.535C547.949 254.664 547.645 254.742 547.195 254.762L546.074 254.762C545.758 254.762 545.5 254.664 545.324 254.473C545.164 254.281 545.082 254.023 545.082 253.734L545.082 252.09L544.254 252.09C544.156 252.824 543.996 253.367 543.758 253.754C543.402 254.23 542.859 254.633 542.094 254.984L541.438 254.168C542.109 253.91 542.57 253.625 542.859 253.273C543.082 253 543.227 252.602 543.293 252.09L541.516 252.09L541.516 251.16L544.555 251.16L544.555 250.039ZM524.668 252.633L524.668 247.961L525.805 247.961L525.805 249.512L532.012 249.512L532.012 250.602L525.805 250.602L525.805 252.633L530.906 252.633L530.906 257.77L520.316 257.77L520.316 252.633L524.668 252.633ZM521.469 256.695L529.758 256.695L529.758 253.719L521.469 253.719L521.469 256.695ZM536.43 255.367L546.684 255.367L546.684 259.91L545.562 259.91L545.562 256.391L537.531 256.391L537.531 260.008L536.43 260.008L536.43 255.367ZM539.469 260.039C540.445 259.367 541.051 258.426 541.277 257.223L542.379 257.336C542.156 258.777 541.5 259.91 540.379 260.777C539.387 261.543 537.629 262.152 535.117 262.602L534.668 261.543C536.891 261.191 538.492 260.695 539.469 260.039ZM529.469 259.047L530.395 258.457C531.422 259.801 532.188 260.969 532.73 261.961L531.773 262.633C531.211 261.543 530.445 260.359 529.469 259.047ZM518.219 261.863C519.02 260.922 519.707 259.785 520.285 258.473L521.262 258.938C520.652 260.328 519.965 261.527 519.164 262.551L518.219 261.863ZM526.027 259L527.117 258.777C527.598 259.863 528.012 261.062 528.363 262.344L527.227 262.602C526.906 261.238 526.508 260.039 526.027 259ZM522.699 259.16L523.773 258.938C524.094 259.992 524.379 261.145 524.637 262.375L523.484 262.633C523.262 261.32 523.004 260.168 522.699 259.16ZM541.789 260.617L542.363 259.754C544.637 260.266 546.699 260.902 548.57 261.672L547.965 262.633C545.949 261.77 543.898 261.098 541.789 260.617Z" fill="#9298B5"/>
			<g opacity="0.000100">
				<rect x="605.000000" y="48.000000" width="40.000000" height="40.000000" fill="#222222"/>
			</g>
			<path d="M639.062 52.376C639.925 52.376 640.625 53.0754 640.625 53.9385L640.625 82.0635C640.625 82.9265 639.925 83.626 639.062 83.626L610.938 83.626C610.075 83.626 609.375 82.9265 609.375 82.0635L609.375 53.9385C609.375 53.0754 610.075 52.376 610.938 52.376L639.062 52.376M628.086 61.282C628.086 59.5562 629.485 58.157 631.211 58.157C632.937 58.157 634.336 59.5562 634.336 61.282C634.336 63.0081 632.937 64.407 631.211 64.407C629.485 64.407 628.086 63.0081 628.086 61.282L628.086 61.282M619.233 68.0916C619.067 68.1836 618.924 68.3125 618.815 68.468L612.622 77.3269C612.227 77.8928 612.365 78.6721 612.931 79.0676C613.14 79.2141 613.39 79.2927 613.645 79.2932L636.214 79.3252C636.905 79.3262 637.465 78.7673 637.466 78.0769C637.466 77.8018 637.376 77.5339 637.208 77.3154L632.251 70.8398C631.831 70.2915 631.046 70.1875 630.499 70.6072C630.363 70.7109 630.25 70.8413 630.167 70.9905L627.305 76.1184C626.969 76.7212 626.208 76.9373 625.604 76.6008C625.401 76.4875 625.234 76.3198 625.121 76.1165L620.933 68.5771C620.597 67.9736 619.836 67.7563 619.233 68.0916L619.233 68.0916Z" fill-rule="evenodd" fill="#222222" fill-opacity="1.000000"/>
			<g clip-path="url(#clip320_38009)">
				<path d="M624.993 212.575L632.49 205.055L632.49 212.575L624.993 212.575L619.161 212.575L622.077 208.815L624.993 212.575M612.497 219.26C612.055 219.26 611.631 219.084 611.319 218.771C611.006 218.458 610.831 218.032 610.831 217.589L610.831 192.521C610.831 192.077 611.006 191.652 611.319 191.339C611.631 191.025 612.055 190.849 612.497 190.849L637.488 190.849C637.93 190.849 638.354 191.025 638.666 191.339C638.979 191.652 639.154 192.077 639.154 192.521L639.154 217.589C639.154 218.032 638.979 218.458 638.666 218.771C638.354 219.084 637.93 219.26 637.488 219.26L612.497 219.26M619.161 197.534L619.161 199.206L617.495 199.206L617.495 197.534L619.161 197.534Z" stroke="#222222" stroke-width="3.332386"/>
				<path d="M632.49 212.575L632.49 205.055L624.993 212.575L632.49 212.575M624.993 212.575L622.077 209.233L619.578 212.575L624.993 212.575M617.496 197.534L619.162 197.534L619.162 199.205L617.496 199.205L617.496 197.534Z" fill-rule="evenodd" fill="#222222"/>
			</g>
			<path d="M638.883 116.289L629.461 116.289L629.461 117.246C629.445 117.84 629.41 118.398 629.379 118.93L636.82 118.93L636.82 125.633L635.668 125.633L635.668 120.047L629.234 120.047C628.852 122.449 627.973 124.305 626.613 125.586L625.73 124.816C627.41 123.23 628.262 120.703 628.293 117.246L628.293 111.375L629.461 111.375L629.461 115.184L634.148 115.184L634.148 110.93L635.285 110.93L635.285 115.184L638.883 115.184L638.883 116.289ZM609.973 111.633L623.027 111.633L623.027 125.602L621.906 125.602L621.906 124.945L611.094 124.945L611.094 125.602L609.973 125.602L609.973 111.633ZM611.094 112.656L611.094 123.922L621.906 123.922L621.906 112.656L611.094 112.656ZM612.004 116.129C613.461 115.266 614.453 114.223 614.965 113.008L615.988 113.137C615.859 113.441 615.73 113.727 615.57 114.016L619.797 114.016L619.797 114.816C619.348 115.664 618.676 116.414 617.766 117.055C618.836 117.566 620.051 118 621.43 118.32L620.82 119.184C619.27 118.77 617.941 118.258 616.82 117.633C615.59 118.289 614.066 118.816 612.242 119.215L611.73 118.289C613.379 118 614.773 117.586 615.891 117.055C615.27 116.641 614.723 116.191 614.277 115.711C613.797 116.16 613.254 116.574 612.645 116.961L612.004 116.129ZM614.867 115.07C615.43 115.617 616.086 116.113 616.82 116.559C617.605 116.078 618.211 115.52 618.645 114.879L615.012 114.879C614.949 114.945 614.898 115.008 614.867 115.07ZM614.789 119.391L615.316 118.625C616.562 119.039 617.715 119.551 618.758 120.129L618.211 120.961C617.109 120.289 615.973 119.777 614.789 119.391ZM613.203 121.727L613.652 120.863C615.781 121.266 617.828 121.84 619.781 122.574L619.395 123.504C617.41 122.734 615.348 122.145 613.203 121.727Z" fill="#9298B5"/>
			<path d="M638.883 253.289L629.461 253.289L629.461 254.246C629.445 254.84 629.41 255.398 629.379 255.93L636.82 255.93L636.82 262.633L635.668 262.633L635.668 257.047L629.234 257.047C628.852 259.449 627.973 261.305 626.613 262.586L625.73 261.816C627.41 260.23 628.262 257.703 628.293 254.246L628.293 248.375L629.461 248.375L629.461 252.184L634.148 252.184L634.148 247.93L635.285 247.93L635.285 252.184L638.883 252.184L638.883 253.289ZM609.973 248.633L623.027 248.633L623.027 262.602L621.906 262.602L621.906 261.945L611.094 261.945L611.094 262.602L609.973 262.602L609.973 248.633ZM611.094 249.656L611.094 260.922L621.906 260.922L621.906 249.656L611.094 249.656ZM612.004 253.129C613.461 252.266 614.453 251.223 614.965 250.008L615.988 250.137C615.859 250.441 615.73 250.727 615.57 251.016L619.797 251.016L619.797 251.816C619.348 252.664 618.676 253.414 617.766 254.055C618.836 254.566 620.051 255 621.43 255.32L620.82 256.184C619.27 255.77 617.941 255.258 616.82 254.633C615.59 255.289 614.066 255.816 612.242 256.215L611.73 255.289C613.379 255 614.773 254.586 615.891 254.055C615.27 253.641 614.723 253.191 614.277 252.711C613.797 253.16 613.254 253.574 612.645 253.961L612.004 253.129ZM614.867 252.07C615.43 252.617 616.086 253.113 616.82 253.559C617.605 253.078 618.211 252.52 618.645 251.879L615.012 251.879C614.949 251.945 614.898 252.008 614.867 252.07ZM614.789 256.391L615.316 255.625C616.562 256.039 617.715 256.551 618.758 257.129L618.211 257.961C617.109 257.289 615.973 256.777 614.789 256.391ZM613.203 258.727L613.652 257.863C615.781 258.266 617.828 258.84 619.781 259.574L619.395 260.504C617.41 259.734 615.348 259.145 613.203 258.727Z" fill="#9298B5"/>
			<g opacity="0.000100">
				<rect x="696.000000" y="48.000244" width="39.981693" height="40.170422" fill="#222222"/>
			</g>
			<path d="M716.962 52.8591C716.907 52.7908 716.845 52.7285 716.777 52.6731C716.241 52.2371 715.454 52.3203 715.02 52.8591L705.535 64.6331C705.354 64.8567 705.256 65.1355 705.256 65.4229C705.256 66.1162 705.816 66.6782 706.506 66.6782L710.369 66.6782L710.369 75.8186C710.369 76.6853 711.068 77.3877 711.93 77.3877L720.052 77.3877C720.914 77.3877 721.613 76.6853 721.613 75.8186L721.613 66.6782L725.476 66.6782C725.762 66.6782 726.04 66.5796 726.262 66.3987C726.798 65.9626 726.881 65.1721 726.447 64.6331L716.962 52.8591M730.438 81.8936C730.438 80.8538 729.598 80.0107 728.563 80.0107L703.418 80.0107C702.383 80.0107 701.544 80.8538 701.544 81.8936C701.544 82.9336 702.383 83.7766 703.418 83.7766L728.563 83.7766C729.598 83.7766 730.438 82.9336 730.438 81.8936L730.438 81.8936Z" fill-rule="evenodd" fill="#222222" fill-opacity="1.000000"/>
			<g clip-path="url(#clip320_38021)">
				<path d="M729.318 214.291L729.318 219.312L702.664 219.312L702.664 214.291M708.436 199.287L715.992 191.695L723.547 199.287M715.993 212.736L715.992 191.695" stroke="#222222" stroke-width="3.337520"/>
			</g>
			<path d="M718.172 125.633L718.172 116.672C717.645 117.375 717.066 118.062 716.445 118.703L716.074 117.473C717.773 115.566 719.02 113.375 719.805 110.91L720.891 111.426C720.477 112.656 719.965 113.824 719.324 114.93L719.324 125.633L718.172 125.633ZM721.102 114.098L721.102 112.977L724.219 112.977L724.699 110.91L725.82 111.023C725.66 111.695 725.516 112.352 725.371 112.977L730.203 112.977L730.203 114.098L725.082 114.098C724.906 114.734 724.73 115.359 724.539 115.953L730.859 115.953L730.859 117.055L724.172 117.055C723.914 117.793 723.645 118.465 723.387 119.09L729.965 119.09L729.965 120.078C729.293 121.199 728.219 122.32 726.746 123.441C727.5 123.84 728.219 124.273 728.926 124.734L728.27 125.727C726.316 124.383 724.301 123.328 722.254 122.559L722.859 121.664C723.852 122.047 724.812 122.465 725.738 122.91C727.004 122.031 727.996 121.121 728.73 120.16L721.883 120.16C722.301 119.168 722.699 118.129 723.066 117.055L720.395 117.055L720.395 115.953L723.422 115.953C723.613 115.328 723.789 114.703 723.949 114.098L721.102 114.098ZM706.156 123.84L706.156 110.93L707.34 110.93L707.34 115.871L713.277 115.871L713.277 116.992L707.34 116.992L707.34 123.84L714.637 123.84L714.637 124.961L700.395 124.961L700.395 123.84L706.156 123.84Z" fill="#9298B5"/>
			<path d="M718.172 262.633L718.172 253.672C717.645 254.375 717.066 255.062 716.445 255.703L716.074 254.473C717.773 252.566 719.02 250.375 719.805 247.91L720.891 248.426C720.477 249.656 719.965 250.824 719.324 251.93L719.324 262.633L718.172 262.633ZM721.102 251.098L721.102 249.977L724.219 249.977L724.699 247.91L725.82 248.023C725.66 248.695 725.516 249.352 725.371 249.977L730.203 249.977L730.203 251.098L725.082 251.098C724.906 251.734 724.73 252.359 724.539 252.953L730.859 252.953L730.859 254.055L724.172 254.055C723.914 254.793 723.645 255.465 723.387 256.09L729.965 256.09L729.965 257.078C729.293 258.199 728.219 259.32 726.746 260.441C727.5 260.84 728.219 261.273 728.926 261.734L728.27 262.727C726.316 261.383 724.301 260.328 722.254 259.559L722.859 258.664C723.852 259.047 724.812 259.465 725.738 259.91C727.004 259.031 727.996 258.121 728.73 257.16L721.883 257.16C722.301 256.168 722.699 255.129 723.066 254.055L720.395 254.055L720.395 252.953L723.422 252.953C723.613 252.328 723.789 251.703 723.949 251.098L721.102 251.098ZM706.156 260.84L706.156 247.93L707.34 247.93L707.34 252.871L713.277 252.871L713.277 253.992L707.34 253.992L707.34 260.84L714.637 260.84L714.637 261.961L700.395 261.961L700.395 260.84L706.156 260.84Z" fill="#9298B5"/>
			<g opacity="0.000100">
				<rect x="787.000000" y="48.000000" width="40.000000" height="40.000000" fill="#222222"/>
			</g>
			<path d="M804.578 52.3755L804.578 52.374L792.938 52.374C792.075 52.374 791.375 53.0735 791.375 53.9365L791.375 82.0615C791.375 82.9246 792.075 83.624 792.938 83.624L820.281 83.624C821.144 83.624 821.844 82.9246 821.844 82.0615L821.844 72.6946C821.827 71.6733 820.994 70.8506 819.969 70.8506C818.943 70.8506 818.11 71.6733 818.094 72.6946L818.094 72.7256L818.094 78.3115L818.094 78.3374C818.08 79.1885 817.386 79.874 816.531 79.874L796.688 79.874L796.662 79.8738C795.811 79.8601 795.125 79.1658 795.125 78.3115L795.125 57.6865L795.125 57.6606C795.139 56.8096 795.833 56.124 796.688 56.124L804.578 56.124L804.578 56.1226C804.604 56.1235 804.63 56.124 804.656 56.124C805.692 56.124 806.531 55.2847 806.531 54.249C806.531 53.2134 805.692 52.374 804.656 52.374C804.63 52.374 804.604 52.3745 804.578 52.3755L804.578 52.3755M814.564 54.4966C814.028 54.0771 813.252 54.1638 812.823 54.6953C812.643 54.9177 812.544 55.1953 812.544 55.4814L812.544 58.4487L812.464 58.4441C812.277 58.4341 812.088 58.429 811.898 58.429C806.086 58.429 801.375 63.1755 801.375 69.0308C801.375 70.4937 801.672 71.7295 802.205 72.9653L802.224 73.002L802.228 73.0088C802.256 73.0566 802.311 73.0833 802.366 73.0759C802.421 73.0688 802.466 73.0293 802.481 72.9756L802.483 72.9675L802.511 72.8274C803.441 68.2156 807.507 64.9207 812.371 64.9207C812.429 64.9207 812.487 64.9211 812.544 64.9224L812.544 67.7439L812.545 67.7646C812.556 68.4453 813.111 68.9939 813.794 68.9939C814.081 68.9939 814.358 68.8958 814.581 68.7158L822.161 62.5845L822.177 62.5713C822.699 62.1348 822.777 61.3579 822.347 60.8267C822.292 60.7583 822.229 60.696 822.161 60.6409L814.581 54.5095L814.564 54.4966Z" fill-rule="evenodd" fill="#222222" fill-opacity="1.000000"/>
			<g clip-path="url(#clip320_38031)">
				<path d="M810.322 190.021L821.983 190.021L821.983 201.738" stroke="#222222" stroke-width="3.337524" stroke-linejoin="round" stroke-linecap="square"/>
				<path d="M821.984 209.666L821.984 217.639C821.984 219.025 820.866 220.149 819.485 220.149L794.497 220.149C793.117 220.149 791.998 219.025 791.998 217.639L791.998 192.532C791.998 191.146 793.117 190.021 794.497 190.021L801.994 190.021" stroke="#222222" stroke-width="3.337524" stroke-linejoin="round" stroke-linecap="square"/>
				<path d="M808.49 203.549L821.234 190.805" stroke="#222222" stroke-width="3.337524" stroke-linejoin="round" stroke-linecap="square"/>
			</g>
			<path d="M813.012 111.105L814.324 110.895C814.578 111.312 814.82 111.762 815.043 112.273L821.445 112.273L821.445 113.359L807.555 113.359L807.555 112.273L813.781 112.273C813.539 111.855 813.285 111.457 813.012 111.105ZM799.797 111.617L800.789 111.055C801.715 113.52 803.363 115.473 805.746 116.895L804.98 117.809C802.5 116.207 800.773 114.145 799.797 111.617ZM794.164 114.418C794.934 113.52 795.637 112.48 796.277 111.266L797.285 111.871C796.531 113.199 795.781 114.289 795.027 115.137C794.227 116.062 793.156 116.977 791.828 117.871L791.203 116.863C792.293 116.238 793.285 115.426 794.164 114.418ZM809.715 117.551L809.715 114.32L819.301 114.32L819.301 117.551L809.715 117.551ZM810.82 116.559L818.195 116.559L818.195 115.312L810.82 115.312L810.82 116.559ZM795.301 122.047C795.973 121.121 796.469 119.902 796.805 118.398L793.57 118.398L793.57 117.297L803.125 117.297C803.074 119.297 802.98 120.91 802.82 122.145C802.66 123.359 802.402 124.223 802.035 124.703C801.684 125.168 801.109 125.426 800.309 125.473L797.395 125.473L797.074 124.336C798.004 124.367 798.883 124.383 799.715 124.383C800.578 124.383 801.141 124.016 801.41 123.281C801.699 122.512 801.875 120.895 801.957 118.398L797.973 118.398C797.59 120.145 797.059 121.535 796.371 122.559C795.555 123.711 794.324 124.734 792.691 125.648L791.957 124.688C793.43 123.887 794.547 123.008 795.301 122.047ZM807.203 122.656L807.203 121.602L814.211 121.602L814.211 120.977C815.203 120.594 816.371 120.129 817.715 119.566L808.758 119.566L808.758 118.527L819.988 118.527L819.988 119.359C818.645 119.984 817.094 120.625 815.348 121.297L815.348 121.602L821.797 121.602L821.797 122.656L815.348 122.656L815.348 124.145C815.348 125.105 814.867 125.602 813.926 125.602L811.668 125.602L811.363 124.543C812.262 124.594 812.965 124.625 813.477 124.625C813.957 124.625 814.211 124.352 814.211 123.809L814.211 122.656L807.203 122.656Z" fill="#9298B5"/>
			<path d="M813.012 248.105L814.324 247.895C814.578 248.312 814.82 248.762 815.043 249.273L821.445 249.273L821.445 250.359L807.555 250.359L807.555 249.273L813.781 249.273C813.539 248.855 813.285 248.457 813.012 248.105ZM799.797 248.617L800.789 248.055C801.715 250.52 803.363 252.473 805.746 253.895L804.98 254.809C802.5 253.207 800.773 251.145 799.797 248.617ZM794.164 251.418C794.934 250.52 795.637 249.48 796.277 248.266L797.285 248.871C796.531 250.199 795.781 251.289 795.027 252.137C794.227 253.062 793.156 253.977 791.828 254.871L791.203 253.863C792.293 253.238 793.285 252.426 794.164 251.418ZM809.715 254.551L809.715 251.32L819.301 251.32L819.301 254.551L809.715 254.551ZM810.82 253.559L818.195 253.559L818.195 252.312L810.82 252.312L810.82 253.559ZM795.301 259.047C795.973 258.121 796.469 256.902 796.805 255.398L793.57 255.398L793.57 254.297L803.125 254.297C803.074 256.297 802.98 257.91 802.82 259.145C802.66 260.359 802.402 261.223 802.035 261.703C801.684 262.168 801.109 262.426 800.309 262.473L797.395 262.473L797.074 261.336C798.004 261.367 798.883 261.383 799.715 261.383C800.578 261.383 801.141 261.016 801.41 260.281C801.699 259.512 801.875 257.895 801.957 255.398L797.973 255.398C797.59 257.145 797.059 258.535 796.371 259.559C795.555 260.711 794.324 261.734 792.691 262.648L791.957 261.688C793.43 260.887 794.547 260.008 795.301 259.047ZM807.203 259.656L807.203 258.602L814.211 258.602L814.211 257.977C815.203 257.594 816.371 257.129 817.715 256.566L808.758 256.566L808.758 255.527L819.988 255.527L819.988 256.359C818.645 256.984 817.094 257.625 815.348 258.297L815.348 258.602L821.797 258.602L821.797 259.656L815.348 259.656L815.348 261.145C815.348 262.105 814.867 262.602 813.926 262.602L811.668 262.602L811.363 261.543C812.262 261.594 812.965 261.625 813.477 261.625C813.957 261.625 814.211 261.352 814.211 260.809L814.211 259.656L807.203 259.656Z" fill="#9298B5"/>
			<g opacity="0.000100">
				<rect x="878.000000" y="48.000000" width="40.000000" height="40.000000" fill="#222222"/>
			</g>
			<path d="M907.336 53.937C907.336 53.074 906.636 52.3745 905.773 52.3745L890.148 52.3745C889.286 52.3745 888.586 53.074 888.586 53.937L888.586 57.6479L884.25 57.6479C883.214 57.6479 882.375 58.4873 882.375 59.5229C882.375 60.5586 883.214 61.3979 884.25 61.3979L911.75 61.3979C912.786 61.3979 913.625 60.5586 913.625 59.5229C913.625 58.4873 912.786 57.6479 911.75 57.6479L907.336 57.6479L907.336 53.937M893.078 75.4614L893.078 62.9614L887.844 62.9614C886.98 62.9614 886.281 63.6609 886.281 64.5239L886.281 82.063C886.281 82.9258 886.98 83.6255 887.844 83.6255L908.156 83.6255C909.019 83.6255 909.719 82.9258 909.719 82.063L909.719 64.5239C909.719 63.6609 909.019 62.9614 908.156 62.9614L902.922 62.9614L902.922 75.4614L902.921 75.4819C902.911 76.1628 902.355 76.7114 901.672 76.7114L901.651 76.7112C900.97 76.7002 900.422 76.1448 900.422 75.4614L900.422 62.9614L895.578 62.9614L895.578 75.4614L895.578 75.4819C895.567 76.1628 895.011 76.7114 894.328 76.7114C893.638 76.7114 893.078 76.1516 893.078 75.4614L893.078 75.4614Z" fill-rule="evenodd" fill="#222222" fill-opacity="1.000000"/>
			<g clip-path="url(#clip320_38044)">
				<path d="M882.165 194.206L886.746 194.206L891.328 194.206L904.655 194.206L909.236 194.206L913.817 194.206M886.746 194.206L886.746 218.476C886.746 219.033 887.024 219.312 887.579 219.312L908.403 219.312C908.958 219.312 909.236 219.033 909.236 218.476L909.236 194.206M891.328 194.206L891.328 190.858L904.655 190.858L904.655 194.206M894.659 200.064L894.659 212.617M901.323 200.064L901.323 212.617" stroke="#222222" stroke-width="3.337520"/>
			</g>
			<path d="M896.172 123.969C896.172 124.961 895.707 125.473 894.812 125.473L892.828 125.473L892.59 124.449C893.227 124.48 893.852 124.512 894.445 124.512C894.891 124.512 895.117 124.238 895.117 123.711L895.117 110.992L896.172 110.992L896.172 123.969ZM903.133 115.391C904.926 114.289 906.379 112.879 907.5 111.168L908.621 111.168C909.578 112.816 911.02 114.191 912.926 115.297L912.254 116.273C910.508 115.266 909.117 113.938 908.059 112.273C906.875 113.969 905.453 115.344 903.789 116.367L903.133 115.391ZM882.285 118.383L882.285 117.344L883.262 117.344L883.262 111.551L886.637 111.551L886.637 117.344L887.773 117.344L887.773 111.551L891.133 111.551L891.133 117.344L892.012 117.344L892.012 118.383L891.133 118.383L891.133 124.414C891.133 125.152 890.746 125.535 890.012 125.535L889.117 125.535L888.859 124.574C889.148 124.609 889.438 124.625 889.707 124.625C889.98 124.625 890.125 124.434 890.125 124.078L890.125 118.383L888.746 118.383L888.746 118.609C888.73 121.457 888.41 123.777 887.805 125.535L887.004 124.816C887.5 123.199 887.758 121.152 887.773 118.688L887.773 118.383L886.637 118.383L886.637 124.383C886.637 125.137 886.234 125.52 885.438 125.52L884.492 125.52L884.234 124.559C884.555 124.594 884.844 124.609 885.117 124.609C885.469 124.609 885.645 124.414 885.645 124.047L885.645 118.383L884.254 118.383C884.203 121.328 883.773 123.711 882.973 125.535L882.156 124.801C882.859 123.105 883.227 120.977 883.262 118.383L882.285 118.383ZM898.812 125.617L898.812 111.566L903.355 111.566L903.355 112.48C902.941 113.938 902.43 115.457 901.836 117.023C902.73 118.414 903.211 119.68 903.277 120.801C903.277 121.504 903.117 122 902.828 122.305C902.41 122.688 901.676 122.895 900.637 122.895L900.254 121.727C900.508 121.762 900.715 121.793 900.875 121.793C901.371 121.762 901.707 121.68 901.867 121.535C902.027 121.391 902.125 121.152 902.125 120.801C902.125 119.727 901.645 118.527 900.684 117.199C901.324 115.52 901.82 114 902.188 112.656L899.934 112.656L899.934 125.617L898.812 125.617ZM892.57 122.336L892.57 112.398L893.578 112.398L893.578 122.336L892.57 122.336ZM884.254 117.344L885.645 117.344L885.645 112.543L884.254 112.543L884.254 117.344ZM888.746 117.344L890.125 117.344L890.125 112.543L888.746 112.543L888.746 117.344ZM908.668 124.113C908.668 124.992 908.254 125.441 907.453 125.441L905.789 125.441L905.531 124.32C906.059 124.352 906.57 124.383 907.051 124.383C907.34 124.383 907.484 124.191 907.484 123.824L907.484 119.344L903.738 119.344L903.738 118.223L907.484 118.223L907.484 116.336L905.371 116.336L905.371 115.266L910.621 115.266L910.621 116.336L908.668 116.336L908.668 118.223L912.254 118.223L912.254 119.344L908.668 119.344L908.668 124.113ZM909.613 120.977L910.508 120.434C911.355 121.742 912.012 122.895 912.477 123.887L911.516 124.543C911.051 123.473 910.41 122.289 909.613 120.977ZM903.035 123.969C903.867 123.008 904.605 121.855 905.211 120.512L906.203 121.008C905.562 122.398 904.828 123.617 903.98 124.641L903.035 123.969Z" fill="#9298B5"/>
			<path d="M896.172 260.969C896.172 261.961 895.707 262.473 894.812 262.473L892.828 262.473L892.59 261.449C893.227 261.48 893.852 261.512 894.445 261.512C894.891 261.512 895.117 261.238 895.117 260.711L895.117 247.992L896.172 247.992L896.172 260.969ZM903.133 252.391C904.926 251.289 906.379 249.879 907.5 248.168L908.621 248.168C909.578 249.816 911.02 251.191 912.926 252.297L912.254 253.273C910.508 252.266 909.117 250.938 908.059 249.273C906.875 250.969 905.453 252.344 903.789 253.367L903.133 252.391ZM882.285 255.383L882.285 254.344L883.262 254.344L883.262 248.551L886.637 248.551L886.637 254.344L887.773 254.344L887.773 248.551L891.133 248.551L891.133 254.344L892.012 254.344L892.012 255.383L891.133 255.383L891.133 261.414C891.133 262.152 890.746 262.535 890.012 262.535L889.117 262.535L888.859 261.574C889.148 261.609 889.438 261.625 889.707 261.625C889.98 261.625 890.125 261.434 890.125 261.078L890.125 255.383L888.746 255.383L888.746 255.609C888.73 258.457 888.41 260.777 887.805 262.535L887.004 261.816C887.5 260.199 887.758 258.152 887.773 255.688L887.773 255.383L886.637 255.383L886.637 261.383C886.637 262.137 886.234 262.52 885.438 262.52L884.492 262.52L884.234 261.559C884.555 261.594 884.844 261.609 885.117 261.609C885.469 261.609 885.645 261.414 885.645 261.047L885.645 255.383L884.254 255.383C884.203 258.328 883.773 260.711 882.973 262.535L882.156 261.801C882.859 260.105 883.227 257.977 883.262 255.383L882.285 255.383ZM898.812 262.617L898.812 248.566L903.355 248.566L903.355 249.48C902.941 250.938 902.43 252.457 901.836 254.023C902.73 255.414 903.211 256.68 903.277 257.801C903.277 258.504 903.117 259 902.828 259.305C902.41 259.688 901.676 259.895 900.637 259.895L900.254 258.727C900.508 258.762 900.715 258.793 900.875 258.793C901.371 258.762 901.707 258.68 901.867 258.535C902.027 258.391 902.125 258.152 902.125 257.801C902.125 256.727 901.645 255.527 900.684 254.199C901.324 252.52 901.82 251 902.188 249.656L899.934 249.656L899.934 262.617L898.812 262.617ZM892.57 259.336L892.57 249.398L893.578 249.398L893.578 259.336L892.57 259.336ZM884.254 254.344L885.645 254.344L885.645 249.543L884.254 249.543L884.254 254.344ZM888.746 254.344L890.125 254.344L890.125 249.543L888.746 249.543L888.746 254.344ZM908.668 261.113C908.668 261.992 908.254 262.441 907.453 262.441L905.789 262.441L905.531 261.32C906.059 261.352 906.57 261.383 907.051 261.383C907.34 261.383 907.484 261.191 907.484 260.824L907.484 256.344L903.738 256.344L903.738 255.223L907.484 255.223L907.484 253.336L905.371 253.336L905.371 252.266L910.621 252.266L910.621 253.336L908.668 253.336L908.668 255.223L912.254 255.223L912.254 256.344L908.668 256.344L908.668 261.113ZM909.613 257.977L910.508 257.434C911.355 258.742 912.012 259.895 912.477 260.887L911.516 261.543C911.051 260.473 910.41 259.289 909.613 257.977ZM903.035 260.969C903.867 260.008 904.605 258.855 905.211 257.512L906.203 258.008C905.562 259.398 904.828 260.617 903.98 261.641L903.035 260.969Z" fill="#9298B5"/>
		</g>
	</g>
	<defs>
		<filter id="filter_320_37927_dd" x="0.000000" y="0.000000" width="976.000000" height="329.000000" filterUnits="userSpaceOnUse" color-interpolation-filters="sRGB">
			<feFlood flood-opacity="0" result="BackgroundImageFix"/>
			<feColorMatrix in="SourceAlpha" type="matrix" values="0 0 0 0 0 0 0 0 0 0 0 0 0 0 0 0 0 0 127 0"/>
			<feOffset dx="0" dy="2"/>
			<feGaussianBlur stdDeviation="2.66667"/>
			<feColorMatrix type="matrix" values="0 0 0 0 0 0 0 0 0 0 0 0 0 0 0 0 0 0 0.098 0"/>
			<feBlend mode="normal" in2="BackgroundImageFix" result="effect_dropShadow_1"/>
			<feBlend mode="normal" in="SourceGraphic" in2="effect_dropShadow_1" result="shape"/>
		</filter>
		<clipPath id="clip320_37936">
			<rect width="39.985268" height="40.109585" transform="translate(59.000000 184.999756)" fill="white"/>
		</clipPath>
		<clipPath id="clip320_37949">
			<rect width="39.985268" height="40.109585" transform="translate(150.000000 184.999756)" fill="white"/>
		</clipPath>
		<clipPath id="clip320_37961">
			<rect width="39.985268" height="40.109585" transform="translate(241.000000 184.999756)" fill="white"/>
		</clipPath>
		<clipPath id="clip320_37973">
			<rect width="39.985268" height="40.109585" transform="translate(332.000000 184.999756)" fill="white"/>
		</clipPath>
		<clipPath id="clip320_37985">
			<rect width="39.985268" height="40.109585" transform="translate(423.000000 184.999756)" fill="white"/>
		</clipPath>
		<clipPath id="clip320_37997">
			<rect width="39.985268" height="40.109585" transform="translate(514.000000 184.999756)" fill="white"/>
		</clipPath>
		<clipPath id="clip320_38009">
			<rect width="39.985268" height="40.109585" transform="translate(605.000000 184.999756)" fill="white"/>
		</clipPath>
		<clipPath id="clip320_38021">
			<rect width="39.981693" height="40.170422" transform="translate(696.000000 185.000244)" fill="white"/>
		</clipPath>
		<clipPath id="clip320_38031">
			<rect width="39.981693" height="40.170422" transform="translate(787.000000 185.000244)" fill="white"/>
		</clipPath>
		<clipPath id="clip320_38044">
			<rect width="39.981693" height="40.170422" transform="translate(878.000000 185.000244)" fill="white"/>
		</clipPath>
		<clipPath id="clip320_37927">
			<rect width="960.000000" height="313.000000" transform="translate(8.000000 6.000000)" fill="white"/>
		</clipPath>
	</defs>
</svg>
