<svg width="536.000000" height="204.000000" viewBox="0 0 536 204" fill="none" xmlns="http://www.w3.org/2000/svg" xmlns:xlink="http://www.w3.org/1999/xlink">
	<desc>
			Created with Pixso.
	</desc>
	<g filter="url(#filter_324_35663_dd)">
		<rect rx="4.000000" width="520.000000" height="188.000000" transform="translate(8.000000 6.000000)" fill="#FFFFFF"/>
		<g clip-path="url(#clip324_35663)">
			<rect rx="4.000000" width="110.000000" height="110.000000" transform="translate(134.000000 45.000000)" fill="#FFFFFF"/>
			<rect x="134.500000" y="45.500000" rx="4.000000" width="109.000000" height="109.000000" stroke="#F0F0F0"/>
			<g opacity="0.000100">
				<rect x="157.000000" y="52.000000" width="60.000000" height="60.000000" fill="#222222"/>
			</g>
			<path d="M201.004 60.9062C201.004 59.6118 199.955 58.5625 198.66 58.5625L175.223 58.5625C173.928 58.5625 172.879 59.6118 172.879 60.9062L172.879 66.4727L166.375 66.4727C164.822 66.4727 163.562 67.7319 163.562 69.2852C163.562 70.8384 164.822 72.0977 166.375 72.0977L207.625 72.0977C209.178 72.0977 210.438 70.8384 210.438 69.2852C210.438 67.7319 209.178 66.4727 207.625 66.4727L201.004 66.4727L201.004 60.9062M179.617 93.1914L179.617 74.4414L171.766 74.4414C170.471 74.4414 169.422 75.4907 169.422 76.7852L169.422 103.094C169.422 104.388 170.471 105.438 171.766 105.438L202.234 105.438C203.529 105.438 204.578 104.388 204.578 103.094L204.578 76.7852C204.578 75.4907 203.529 74.4414 202.234 74.4414L194.383 74.4414L194.383 93.1914L194.383 93.2227C194.366 94.2437 193.533 95.0664 192.508 95.0664L192.477 95.0664C191.456 95.0498 190.633 94.2168 190.633 93.1914L190.633 74.4414L183.367 74.4414L183.367 93.1914L183.367 93.2227C183.351 94.2437 182.518 95.0664 181.492 95.0664C180.457 95.0664 179.617 94.2271 179.617 93.1914L179.617 93.1914Z" fill-rule="evenodd" fill="#222222" fill-opacity="1.000000"/>
			<path d="M161.128 105.077L161.128 104.225L164.356 104.225C164.116 103.577 163.853 102.965 163.539 102.364L164.356 102.136C164.693 102.833 164.957 103.457 165.136 104.031L164.644 104.225L168.221 104.225L168.221 105.077L165.124 105.077L165.124 107.957L167.896 107.957L167.896 108.783L165.124 108.783L165.124 111.941L168.449 111.941L168.449 112.791L160.829 112.791L160.829 111.941L164.248 111.941L164.248 108.783L161.465 108.783L161.465 107.957L164.248 107.957L164.248 105.077L161.128 105.077ZM185.128 105.077L185.128 104.225L188.357 104.225C188.116 103.577 187.853 102.965 187.539 102.364L188.357 102.136C188.694 102.833 188.957 103.457 189.136 104.031L188.644 104.225L192.221 104.225L192.221 105.077L189.124 105.077L189.124 107.957L191.896 107.957L191.896 108.783L189.124 108.783L189.124 111.941L192.449 111.941L192.449 112.791L184.829 112.791L184.829 111.941L188.248 111.941L188.248 108.783L185.465 108.783L185.465 107.957L188.248 107.957L188.248 105.077L185.128 105.077ZM169.671 107.441L169.671 106.624L171.675 106.624L171.675 103.48C171.051 103.577 170.415 103.659 169.744 103.732L169.601 102.953C171.256 102.807 172.733 102.555 174.004 102.197L174.279 102.927C173.729 103.073 173.14 103.217 172.516 103.337L172.516 106.624L174.221 106.624L174.221 107.441L172.516 107.441L172.516 108.039C173.093 108.543 173.693 109.12 174.291 109.768L173.799 110.512C173.295 109.841 172.876 109.299 172.516 108.892L172.516 113.201L171.675 113.201L171.675 108.821C171.197 109.853 170.573 110.775 169.791 111.616L169.457 110.74C170.441 109.768 171.159 108.663 171.593 107.441L169.671 107.441ZM193.671 107.441L193.671 106.624L195.675 106.624L195.675 103.48C195.051 103.577 194.415 103.659 193.744 103.732L193.601 102.953C195.256 102.807 196.733 102.555 198.004 102.197L198.28 102.927C197.729 103.073 197.14 103.217 196.516 103.337L196.516 106.624L198.221 106.624L198.221 107.441L196.516 107.441L196.516 108.039C197.093 108.543 197.694 109.12 198.291 109.768L197.799 110.512C197.295 109.841 196.876 109.299 196.516 108.892L196.516 113.201L195.675 113.201L195.675 108.821C195.198 109.853 194.574 110.775 193.791 111.616L193.457 110.74C194.442 109.768 195.159 108.663 195.593 107.441L193.671 107.441ZM157.949 102.977L158.573 102.376C159.399 102.977 160.097 103.565 160.659 104.151L160.047 104.764C159.543 104.201 158.837 103.601 157.949 102.977ZM181.949 102.977L182.573 102.376C183.4 102.977 184.097 103.565 184.659 104.151L184.047 104.764C183.543 104.201 182.837 103.601 181.949 102.977ZM176.74 105.701C175.961 105.065 175.445 104.321 175.193 103.457L174.69 103.457L174.69 102.675L179.86 102.675L179.86 103.396C179.559 104.307 179.02 105.077 178.229 105.725C178.853 106.035 179.585 106.325 180.449 106.589L180.051 107.333C179.043 107.02 178.193 106.659 177.496 106.229C176.752 106.671 175.864 107.031 174.833 107.321L174.411 106.589C175.311 106.349 176.093 106.059 176.74 105.701ZM200.741 105.701C199.961 105.065 199.446 104.321 199.194 103.457L198.69 103.457L198.69 102.675L203.861 102.675L203.861 103.396C203.559 104.307 203.02 105.077 202.229 105.725C202.853 106.035 203.585 106.325 204.449 106.589L204.051 107.333C203.043 107.02 202.194 106.659 201.496 106.229C200.752 106.671 199.865 107.031 198.833 107.321L198.411 106.589C199.311 106.349 200.093 106.059 200.741 105.701ZM176.02 103.457C176.213 104.14 176.679 104.74 177.449 105.256C178.155 104.74 178.671 104.14 178.984 103.457L176.02 103.457ZM200.02 103.457C200.213 104.14 200.679 104.74 201.449 105.256C202.156 104.74 202.671 104.14 202.985 103.457L200.02 103.457ZM172.911 105.953C173.175 105.388 173.392 104.679 173.585 103.829L174.317 104.02C174.124 104.849 173.896 105.581 173.608 106.205L172.911 105.953ZM196.911 105.953C197.175 105.388 197.392 104.679 197.585 103.829L198.318 104.02C198.124 104.849 197.896 105.581 197.609 106.205L196.911 105.953ZM169.721 104.295L170.441 104.055Q170.872 104.92 171.197 105.927L170.535 106.229C170.295 105.496 170.02 104.849 169.721 104.295ZM193.721 104.295L194.442 104.055Q194.872 104.92 195.198 105.927L194.535 106.229C194.295 105.496 194.02 104.849 193.721 104.295ZM157.659 105.795L158.271 105.209C159.065 105.795 159.725 106.384 160.252 106.984L159.64 107.597C159.159 107.043 158.5 106.445 157.659 105.795ZM181.659 105.795L182.272 105.209C183.066 105.795 183.725 106.384 184.252 106.984L183.64 107.597C183.159 107.043 182.5 106.445 181.659 105.795ZM174.449 111.124L174.449 110.307L177.039 110.307L177.039 108.988L174.868 108.988L174.868 108.197L177.039 108.197L177.039 107.02L177.903 107.02L177.903 108.197L180.089 108.197L180.089 108.988L177.903 108.988L177.903 110.307L180.423 110.307L180.423 111.124L177.903 111.124L177.903 113.189L177.039 113.189L177.039 111.124L174.449 111.124ZM198.449 111.124L198.449 110.307L201.039 110.307L201.039 108.988L198.868 108.988L198.868 108.197L201.039 108.197L201.039 107.02L201.904 107.02L201.904 108.197L204.089 108.197L204.089 108.988L201.904 108.988L201.904 110.307L204.423 110.307L204.423 111.124L201.904 111.124L201.904 113.189L201.039 113.189L201.039 111.124L198.449 111.124ZM157.888 112.732C158.608 111.364 159.244 109.961 159.783 108.52L160.551 108.833C160.012 110.345 159.411 111.771 158.752 113.104L157.888 112.732ZM181.888 112.732C182.609 111.364 183.244 109.961 183.783 108.52L184.551 108.833C184.012 110.345 183.411 111.771 182.752 113.104L181.888 112.732Z" fill="#9298B5"/>
			<rect rx="4.000000" width="110.000000" height="110.000000" transform="translate(292.000000 45.000000)" fill="#FFFFFF"/>
			<rect x="292.500000" y="45.500000" rx="4.000000" width="109.000000" height="109.000000" stroke="#F0F0F0"/>
			<g clip-path="url(#clip324_35676)">
				<path d="M321.25 65.75L328.125 65.75L335 65.75L355 65.75L361.875 65.75L368.75 65.75M328.125 65.75L328.125 102C328.125 102.833 328.542 103.25 329.375 103.25L360.625 103.25C361.458 103.25 361.875 102.833 361.875 102L361.875 65.75M335 65.75L335 60.75L355 60.75L355 65.75M340 74.5L340 93.25M350 74.5L350 93.25" stroke="#222222" stroke-width="5.034343"/>
			</g>
			<path d="M319.128 105.077L319.128 104.225L322.356 104.225C322.116 103.577 321.853 102.965 321.539 102.364L322.356 102.136C322.693 102.833 322.957 103.457 323.136 104.031L322.644 104.225L326.221 104.225L326.221 105.077L323.124 105.077L323.124 107.957L325.896 107.957L325.896 108.783L323.124 108.783L323.124 111.941L326.449 111.941L326.449 112.791L318.829 112.791L318.829 111.941L322.248 111.941L322.248 108.783L319.465 108.783L319.465 107.957L322.248 107.957L322.248 105.077L319.128 105.077ZM343.128 105.077L343.128 104.225L346.357 104.225C346.116 103.577 345.853 102.965 345.539 102.364L346.357 102.136C346.694 102.833 346.957 103.457 347.136 104.031L346.644 104.225L350.221 104.225L350.221 105.077L347.124 105.077L347.124 107.957L349.896 107.957L349.896 108.783L347.124 108.783L347.124 111.941L350.449 111.941L350.449 112.791L342.829 112.791L342.829 111.941L346.248 111.941L346.248 108.783L343.465 108.783L343.465 107.957L346.248 107.957L346.248 105.077L343.128 105.077ZM327.671 107.441L327.671 106.624L329.675 106.624L329.675 103.48C329.051 103.577 328.415 103.659 327.744 103.732L327.601 102.953C329.256 102.807 330.733 102.555 332.004 102.197L332.279 102.927C331.729 103.073 331.14 103.217 330.516 103.337L330.516 106.624L332.221 106.624L332.221 107.441L330.516 107.441L330.516 108.039C331.093 108.543 331.693 109.12 332.291 109.768L331.799 110.512C331.295 109.841 330.876 109.299 330.516 108.892L330.516 113.201L329.675 113.201L329.675 108.821C329.197 109.853 328.573 110.775 327.791 111.616L327.457 110.74C328.441 109.768 329.159 108.663 329.593 107.441L327.671 107.441ZM351.671 107.441L351.671 106.624L353.675 106.624L353.675 103.48C353.051 103.577 352.415 103.659 351.744 103.732L351.601 102.953C353.256 102.807 354.733 102.555 356.004 102.197L356.28 102.927C355.729 103.073 355.14 103.217 354.516 103.337L354.516 106.624L356.221 106.624L356.221 107.441L354.516 107.441L354.516 108.039C355.093 108.543 355.694 109.12 356.291 109.768L355.799 110.512C355.295 109.841 354.876 109.299 354.516 108.892L354.516 113.201L353.675 113.201L353.675 108.821C353.198 109.853 352.574 110.775 351.791 111.616L351.457 110.74C352.442 109.768 353.159 108.663 353.593 107.441L351.671 107.441ZM315.949 102.977L316.573 102.376C317.399 102.977 318.097 103.565 318.659 104.151L318.047 104.764C317.543 104.201 316.837 103.601 315.949 102.977ZM339.949 102.977L340.573 102.376C341.4 102.977 342.097 103.565 342.659 104.151L342.047 104.764C341.543 104.201 340.837 103.601 339.949 102.977ZM334.74 105.701C333.961 105.065 333.445 104.321 333.193 103.457L332.69 103.457L332.69 102.675L337.86 102.675L337.86 103.396C337.559 104.307 337.02 105.077 336.229 105.725C336.853 106.035 337.585 106.325 338.449 106.589L338.051 107.333C337.043 107.02 336.193 106.659 335.496 106.229C334.752 106.671 333.864 107.031 332.833 107.321L332.411 106.589C333.311 106.349 334.093 106.059 334.74 105.701ZM358.741 105.701C357.961 105.065 357.446 104.321 357.194 103.457L356.69 103.457L356.69 102.675L361.861 102.675L361.861 103.396C361.559 104.307 361.02 105.077 360.229 105.725C360.853 106.035 361.585 106.325 362.449 106.589L362.051 107.333C361.043 107.02 360.194 106.659 359.496 106.229C358.752 106.671 357.865 107.031 356.833 107.321L356.411 106.589C357.311 106.349 358.093 106.059 358.741 105.701ZM334.02 103.457C334.213 104.14 334.679 104.74 335.449 105.256C336.155 104.74 336.671 104.14 336.984 103.457L334.02 103.457ZM358.02 103.457C358.213 104.14 358.679 104.74 359.449 105.256C360.156 104.74 360.671 104.14 360.985 103.457L358.02 103.457ZM330.911 105.953C331.175 105.388 331.392 104.679 331.585 103.829L332.317 104.02C332.124 104.849 331.896 105.581 331.608 106.205L330.911 105.953ZM354.911 105.953C355.175 105.388 355.392 104.679 355.585 103.829L356.318 104.02C356.124 104.849 355.896 105.581 355.609 106.205L354.911 105.953ZM327.721 104.295L328.441 104.055Q328.872 104.92 329.197 105.927L328.535 106.229C328.295 105.496 328.02 104.849 327.721 104.295ZM351.721 104.295L352.442 104.055Q352.872 104.92 353.198 105.927L352.535 106.229C352.295 105.496 352.02 104.849 351.721 104.295ZM315.659 105.795L316.271 105.209C317.065 105.795 317.725 106.384 318.252 106.984L317.64 107.597C317.159 107.043 316.5 106.445 315.659 105.795ZM339.659 105.795L340.272 105.209C341.066 105.795 341.725 106.384 342.252 106.984L341.64 107.597C341.159 107.043 340.5 106.445 339.659 105.795ZM332.449 111.124L332.449 110.307L335.039 110.307L335.039 108.988L332.868 108.988L332.868 108.197L335.039 108.197L335.039 107.02L335.903 107.02L335.903 108.197L338.089 108.197L338.089 108.988L335.903 108.988L335.903 110.307L338.423 110.307L338.423 111.124L335.903 111.124L335.903 113.189L335.039 113.189L335.039 111.124L332.449 111.124ZM356.449 111.124L356.449 110.307L359.039 110.307L359.039 108.988L356.868 108.988L356.868 108.197L359.039 108.197L359.039 107.02L359.904 107.02L359.904 108.197L362.089 108.197L362.089 108.988L359.904 108.988L359.904 110.307L362.423 110.307L362.423 111.124L359.904 111.124L359.904 113.189L359.039 113.189L359.039 111.124L356.449 111.124ZM315.888 112.732C316.608 111.364 317.244 109.961 317.783 108.52L318.551 108.833C318.012 110.345 317.411 111.771 316.752 113.104L315.888 112.732ZM339.888 112.732C340.609 111.364 341.244 109.961 341.783 108.52L342.551 108.833C342.012 110.345 341.411 111.771 340.752 113.104L339.888 112.732Z" fill="#9298B5"/>
			<path d="M158.766 125.922C159.629 124.449 160.379 122.754 161.019 120.848L162.125 121.281C161.309 123.359 160.477 125.023 159.644 126.273C160.363 126.207 161.086 126.113 161.805 126C162.094 125.426 162.41 124.816 162.73 124.176L163.758 124.559C162.348 127.266 161.164 129.184 160.234 130.32Q161.963 129.986 163.691 129.406L163.691 130.449C162.012 130.992 160.41 131.375 158.875 131.586L158.555 130.527C158.766 130.434 158.941 130.32 159.086 130.191C159.676 129.586 160.394 128.527 161.227 127.039C160.348 127.168 159.453 127.281 158.555 127.391L158.285 126.336C158.461 126.273 158.621 126.129 158.766 125.922ZM168.539 121.441L169.437 120.879C170.254 121.648 170.875 122.305 171.324 122.863L170.43 123.488C169.98 122.863 169.34 122.176 168.539 121.441ZM167.644 124.32L171.629 123.762L171.789 124.816L167.676 125.391C167.707 126.16 167.758 126.879 167.82 127.566L172.059 126.895L172.234 127.984L167.949 128.656C167.98 128.945 168.027 129.23 168.074 129.488C168.234 130.32 168.43 131.039 168.652 131.68C169.516 130.879 170.285 129.984 170.957 128.961L171.867 129.586C171.019 130.816 170.109 131.871 169.117 132.734C169.18 132.832 169.227 132.945 169.293 133.039C169.82 133.824 170.285 134.223 170.699 134.223C171.117 134.223 171.484 133.359 171.773 131.648L172.746 132.289C172.301 134.398 171.66 135.473 170.828 135.473C170.059 135.441 169.34 134.961 168.652 134C168.508 133.809 168.379 133.617 168.285 133.406C167.102 134.289 165.82 134.945 164.461 135.359L163.789 134.434C165.262 133.953 166.59 133.281 167.773 132.398C167.469 131.695 167.227 130.93 167.035 130.062C166.941 129.648 166.875 129.246 166.812 128.832L163.934 129.297L163.773 128.207L166.668 127.742C166.59 127.055 166.539 126.32 166.523 125.551L164.219 125.887L164.043 124.832L166.492 124.48L166.492 120.93L167.644 120.93L167.644 124.32ZM176.41 135.535L176.41 120.977L177.578 120.977L177.578 135.535L176.41 135.535ZM208.555 124L208.555 120.977L209.691 120.977L209.691 124L211.547 124L211.547 125.105L209.691 125.105L209.691 126.336C210.477 127.137 211.262 128.031 212.043 129.008L211.387 129.984C210.73 128.977 210.172 128.176 209.691 127.566L209.691 135.586L208.555 135.586L208.555 127.617C208.043 129.121 207.387 130.496 206.59 131.742L206.094 130.496C207.242 128.93 208.059 127.121 208.555 125.105L206.605 125.105L206.605 124L208.555 124ZM177.852 123.953L178.699 123.68C179.051 124.465 179.355 125.359 179.629 126.383C180.172 124.992 180.492 123.504 180.57 121.922L181.613 122.062C181.578 122.734 181.516 123.375 181.422 123.984L183.707 123.984L183.707 120.992L184.891 120.992L184.891 123.984L188.379 123.984L188.379 125.09L184.891 125.09L184.891 128.961L188.141 128.961L188.141 130.098L184.891 130.098L184.891 134L188.797 134L188.797 135.121L179.133 135.121L179.133 134L183.707 134L183.707 130.098L180.043 130.098L180.043 128.961L183.707 128.961L183.707 125.09L181.211 125.09C180.926 126.258 180.492 127.344 179.934 128.336L179.086 127.566C179.262 127.215 179.422 126.879 179.562 126.559L178.766 126.77C178.523 125.793 178.219 124.848 177.852 123.953ZM190.973 121.633L204.027 121.633L204.027 135.602L202.906 135.602L202.906 134.945L192.094 134.945L192.094 135.602L190.973 135.602L190.973 121.633ZM212.684 122.977L212.684 121.887L219.98 121.887L219.98 122.977L212.684 122.977ZM192.094 122.656L192.094 133.922L202.906 133.922L202.906 122.656L192.094 122.656ZM193.004 126.129C194.461 125.266 195.453 124.223 195.965 123.008L196.988 123.137C196.859 123.441 196.73 123.727 196.57 124.016L200.797 124.016L200.797 124.816C200.348 125.664 199.676 126.414 198.766 127.055C199.836 127.566 201.051 128 202.43 128.32L201.82 129.184C200.27 128.77 198.941 128.258 197.82 127.633C196.59 128.289 195.066 128.816 193.242 129.215L192.73 128.289C194.379 128 195.773 127.586 196.891 127.055C196.27 126.641 195.723 126.191 195.277 125.711C194.797 126.16 194.254 126.574 193.645 126.961L193.004 126.129ZM174.109 128.383C174.445 127.008 174.637 125.551 174.684 124.016L175.598 124.078C175.562 125.68 175.371 127.215 175.051 128.656L174.109 128.383ZM195.867 125.07C196.43 125.617 197.086 126.113 197.82 126.559C198.605 126.078 199.211 125.52 199.645 124.879L196.012 124.879C195.949 124.945 195.898 125.008 195.867 125.07ZM216.891 134C216.891 134.945 216.41 135.426 215.484 135.426L213.852 135.426L213.629 134.352C214.141 134.383 214.621 134.414 215.082 134.414C215.516 134.414 215.738 134.176 215.738 133.711L215.738 126.879L211.836 126.879L211.836 125.777L220.813 125.777L220.813 126.879L216.891 126.879L216.891 134ZM218.027 128.465L219.066 128.129C219.738 129.938 220.316 131.871 220.797 133.922L219.758 134.383C219.227 132.16 218.652 130.191 218.027 128.465ZM211.117 133.602C212.109 131.984 212.828 130.191 213.277 128.207L214.332 128.449C213.82 130.688 213.066 132.609 212.109 134.238L211.117 133.602ZM195.789 129.391L196.316 128.625C197.562 129.039 198.715 129.551 199.758 130.129L199.211 130.961C198.109 130.289 196.973 129.777 195.789 129.391ZM194.203 131.727L194.652 130.863C196.781 131.266 198.828 131.84 200.781 132.574L200.395 133.504C198.41 132.734 196.348 132.145 194.203 131.727ZM158.348 133.871C160.461 133.52 162.301 133.023 163.867 132.414L163.867 133.52C162.301 134.129 160.508 134.625 158.492 134.992L158.348 133.871Z" fill="#9298B5"/>
			<path d="M316.766 125.922C317.629 124.449 318.379 122.754 319.019 120.848L320.125 121.281C319.309 123.359 318.477 125.023 317.644 126.273C318.363 126.207 319.086 126.113 319.805 126C320.094 125.426 320.41 124.816 320.73 124.176L321.758 124.559C320.348 127.266 319.164 129.184 318.234 130.32Q319.963 129.986 321.691 129.406L321.691 130.449C320.012 130.992 318.41 131.375 316.875 131.586L316.555 130.527C316.766 130.434 316.941 130.32 317.086 130.191C317.676 129.586 318.394 128.527 319.227 127.039C318.348 127.168 317.453 127.281 316.555 127.391L316.285 126.336C316.461 126.273 316.621 126.129 316.766 125.922ZM326.539 121.441L327.437 120.879C328.254 121.648 328.875 122.305 329.324 122.863L328.43 123.488C327.98 122.863 327.34 122.176 326.539 121.441ZM325.644 124.32L329.629 123.762L329.789 124.816L325.676 125.391C325.707 126.16 325.758 126.879 325.82 127.566L330.059 126.895L330.234 127.984L325.949 128.656C325.98 128.945 326.027 129.23 326.074 129.488C326.234 130.32 326.43 131.039 326.652 131.68C327.516 130.879 328.285 129.984 328.957 128.961L329.867 129.586C329.019 130.816 328.109 131.871 327.117 132.734C327.18 132.832 327.227 132.945 327.293 133.039C327.82 133.824 328.285 134.223 328.699 134.223C329.117 134.223 329.484 133.359 329.773 131.648L330.746 132.289C330.301 134.398 329.66 135.473 328.828 135.473C328.059 135.441 327.34 134.961 326.652 134C326.508 133.809 326.379 133.617 326.285 133.406C325.102 134.289 323.82 134.945 322.461 135.359L321.789 134.434C323.262 133.953 324.59 133.281 325.773 132.398C325.469 131.695 325.227 130.93 325.035 130.062C324.941 129.648 324.875 129.246 324.812 128.832L321.934 129.297L321.773 128.207L324.668 127.742C324.59 127.055 324.539 126.32 324.523 125.551L322.219 125.887L322.043 124.832L324.492 124.48L324.492 120.93L325.644 120.93L325.644 124.32ZM334.41 135.535L334.41 120.977L335.578 120.977L335.578 135.535L334.41 135.535ZM366.555 124L366.555 120.977L367.691 120.977L367.691 124L369.547 124L369.547 125.105L367.691 125.105L367.691 126.336C368.477 127.137 369.262 128.031 370.043 129.008L369.387 129.984C368.73 128.977 368.172 128.176 367.691 127.566L367.691 135.586L366.555 135.586L366.555 127.617C366.043 129.121 365.387 130.496 364.59 131.742L364.094 130.496C365.242 128.93 366.059 127.121 366.555 125.105L364.605 125.105L364.605 124L366.555 124ZM335.852 123.953L336.699 123.68C337.051 124.465 337.355 125.359 337.629 126.383C338.172 124.992 338.492 123.504 338.57 121.922L339.613 122.062C339.578 122.734 339.516 123.375 339.422 123.984L341.707 123.984L341.707 120.992L342.891 120.992L342.891 123.984L346.379 123.984L346.379 125.09L342.891 125.09L342.891 128.961L346.141 128.961L346.141 130.098L342.891 130.098L342.891 134L346.797 134L346.797 135.121L337.133 135.121L337.133 134L341.707 134L341.707 130.098L338.043 130.098L338.043 128.961L341.707 128.961L341.707 125.09L339.211 125.09C338.926 126.258 338.492 127.344 337.934 128.336L337.086 127.566C337.262 127.215 337.422 126.879 337.562 126.559L336.766 126.77C336.523 125.793 336.219 124.848 335.852 123.953ZM348.973 121.633L362.027 121.633L362.027 135.602L360.906 135.602L360.906 134.945L350.094 134.945L350.094 135.602L348.973 135.602L348.973 121.633ZM370.684 122.977L370.684 121.887L377.98 121.887L377.98 122.977L370.684 122.977ZM350.094 122.656L350.094 133.922L360.906 133.922L360.906 122.656L350.094 122.656ZM351.004 126.129C352.461 125.266 353.453 124.223 353.965 123.008L354.988 123.137C354.859 123.441 354.73 123.727 354.57 124.016L358.797 124.016L358.797 124.816C358.348 125.664 357.676 126.414 356.766 127.055C357.836 127.566 359.051 128 360.43 128.32L359.82 129.184C358.27 128.77 356.941 128.258 355.82 127.633C354.59 128.289 353.066 128.816 351.242 129.215L350.73 128.289C352.379 128 353.773 127.586 354.891 127.055C354.27 126.641 353.723 126.191 353.277 125.711C352.797 126.16 352.254 126.574 351.645 126.961L351.004 126.129ZM332.109 128.383C332.445 127.008 332.637 125.551 332.684 124.016L333.598 124.078C333.562 125.68 333.371 127.215 333.051 128.656L332.109 128.383ZM353.867 125.07C354.43 125.617 355.086 126.113 355.82 126.559C356.605 126.078 357.211 125.52 357.645 124.879L354.012 124.879C353.949 124.945 353.898 125.008 353.867 125.07ZM374.891 134C374.891 134.945 374.41 135.426 373.484 135.426L371.852 135.426L371.629 134.352C372.141 134.383 372.621 134.414 373.082 134.414C373.516 134.414 373.738 134.176 373.738 133.711L373.738 126.879L369.836 126.879L369.836 125.777L378.813 125.777L378.813 126.879L374.891 126.879L374.891 134ZM376.027 128.465L377.066 128.129C377.738 129.938 378.316 131.871 378.797 133.922L377.758 134.383C377.227 132.16 376.652 130.191 376.027 128.465ZM369.117 133.602C370.109 131.984 370.828 130.191 371.277 128.207L372.332 128.449C371.82 130.688 371.066 132.609 370.109 134.238L369.117 133.602ZM353.789 129.391L354.316 128.625C355.562 129.039 356.715 129.551 357.758 130.129L357.211 130.961C356.109 130.289 354.973 129.777 353.789 129.391ZM352.203 131.727L352.652 130.863C354.781 131.266 356.828 131.84 358.781 132.574L358.395 133.504C356.41 132.734 354.348 132.145 352.203 131.727ZM316.348 133.871C318.461 133.52 320.301 133.023 321.867 132.414L321.867 133.52C320.301 134.129 318.508 134.625 316.492 134.992L316.348 133.871Z" fill="#9298B5"/>
		</g>
	</g>
	<defs>
		<filter id="filter_324_35663_dd" x="0.000000" y="0.000000" width="536.000000" height="204.000000" filterUnits="userSpaceOnUse" color-interpolation-filters="sRGB">
			<feFlood flood-opacity="0" result="BackgroundImageFix"/>
			<feColorMatrix in="SourceAlpha" type="matrix" values="0 0 0 0 0 0 0 0 0 0 0 0 0 0 0 0 0 0 127 0"/>
			<feOffset dx="0" dy="2"/>
			<feGaussianBlur stdDeviation="2.66667"/>
			<feColorMatrix type="matrix" values="0 0 0 0 0 0 0 0 0 0 0 0 0 0 0 0 0 0 0.098 0"/>
			<feBlend mode="normal" in2="BackgroundImageFix" result="effect_dropShadow_1"/>
			<feBlend mode="normal" in="SourceGraphic" in2="effect_dropShadow_1" result="shape"/>
		</filter>
		<clipPath id="clip324_35676">
			<rect width="60.000000" height="60.000000" transform="translate(315.000000 52.000000)" fill="white"/>
		</clipPath>
		<clipPath id="clip324_35663">
			<rect rx="4.000000" width="520.000000" height="188.000000" transform="translate(8.000000 6.000000)" fill="white"/>
		</clipPath>
	</defs>
</svg>
