<svg width="112.952637" height="31.437988" viewBox="0 0 112.953 31.438" fill="none" xmlns="http://www.w3.org/2000/svg" xmlns:xlink="http://www.w3.org/1999/xlink">
	<desc>
			Created with Pixso.
	</desc>
	<path d="M44.0742 19.8259L44.0742 22.9419C44.0742 24.5471 43.0864 25.3733 41.7217 25.3733C40.4146 25.3733 39.3062 24.5784 39.3062 22.9419L39.3062 19.8259L40.3257 19.8259L40.3257 22.9419C40.3257 23.9197 40.8853 24.4426 41.7319 24.4426C42.5791 24.4426 43.0601 23.8779 43.0601 22.9419L43.0601 19.8259L44.0742 19.8259Z" fill-rule="evenodd" fill="#000000"/>
	<path d="M52.063 19.8101L53.0879 19.8101L53.0879 25.2527L52.4502 25.2527L52.4502 25.2581L49.5903 21.5825L49.5903 25.2476L48.5654 25.2476L48.5654 19.8101L49.397 19.8101L52.063 23.1824L52.063 19.8101L52.063 19.8101Z" fill-rule="evenodd" fill="#000000"/>
	<path d="M57.4487 25.2581L57.4487 19.8206L58.4683 19.8206L58.4683 25.2581L57.4487 25.2581Z" fill-rule="evenodd" fill="#000000"/>
	<path d="M69.8975 25.2581L67.7642 25.2581L67.7642 19.8206L69.8975 19.8206C71.7588 19.8206 72.5898 21.1484 72.6162 22.4922C72.6367 23.8672 71.8003 25.2581 69.8975 25.2581ZM69.8975 24.2698C71.1313 24.2698 71.6226 23.3706 71.5967 22.4817C71.5703 21.6348 71.0737 20.7878 69.8975 20.7878L68.7783 20.7878L68.7783 24.2698L69.8975 24.2698Z" fill-rule="evenodd" fill="#000000" fill-opacity="1.000000"/>
	<path d="M80.7568 25.2581L76.689 25.2581C76.689 23.449 76.689 21.6296 76.689 19.8206L80.7568 19.8206L80.7568 20.814L77.7031 20.814L77.7031 22.0635L80.647 22.0635L80.647 23.0203L77.7031 23.0203L77.7031 24.249L80.7568 24.249L80.7568 25.2581Z" fill-rule="evenodd" fill="#000000"/>
	<path d="M88.4839 21.1328C88.2959 20.8245 87.7832 20.5264 87.1924 20.5264C86.4292 20.5264 86.0684 20.8452 86.0684 21.2478C86.0684 21.7236 86.6279 21.8542 87.2812 21.9329C88.416 22.074 89.4722 22.3667 89.4722 23.6633C89.4722 24.8762 88.4004 25.394 87.1875 25.394C86.0791 25.394 85.2212 25.0542 84.8188 24.0608L85.6709 23.6162C85.9116 24.2124 86.5391 24.479 87.2031 24.479C87.8462 24.479 88.4526 24.2542 88.4526 23.6633C88.4526 23.1509 87.9194 22.9419 87.1924 22.8635C86.084 22.7327 85.0596 22.4348 85.0596 21.2166C85.0596 20.0977 86.1626 19.6375 87.1611 19.6323C88.0083 19.6323 88.8867 19.8728 89.2993 20.7095L88.4839 21.1328Z" fill-rule="evenodd" fill="#000000"/>
	<path d="M93.6807 25.2581L93.6807 19.8206L94.7002 19.8206L94.7002 25.2581L93.6807 25.2581Z" fill-rule="evenodd" fill="#000000"/>
	<path d="M103.113 21.1487C102.747 20.7983 102.203 20.6047 101.732 20.6047C100.567 20.6047 99.8608 21.4883 99.8608 22.6072C99.8608 23.5012 100.384 24.4268 101.732 24.4268C102.161 24.4268 102.533 24.3325 102.961 23.9927L102.961 23.0308L101.571 23.0308L101.571 22.1157L103.902 22.1157L103.902 24.4058C103.369 25.0176 102.689 25.3835 101.738 25.3835C99.6938 25.3835 98.8623 24.0398 98.8623 22.6125C98.8623 21.0806 99.8188 19.6689 101.738 19.6689C102.47 19.6689 103.197 19.946 103.756 20.5002L103.113 21.1487Z" fill-rule="evenodd" fill="#000000"/>
	<path d="M111.724 19.8101L112.749 19.8101L112.749 25.2527L112.111 25.2527L112.111 25.2581L109.251 21.5825L109.251 25.2476L108.226 25.2476L108.226 19.8101L109.058 19.8101L111.724 23.1824L111.724 19.8101L111.724 19.8101Z" fill-rule="evenodd" fill="#000000"/>
	<path d="M42.752 16.1501L41.8525 16.1501L41.8525 14.1321C40.8223 14.2993 39.8447 14.4668 39.0605 14.613L38.8462 13.6355C39.0503 13.6145 39.2695 13.5779 39.5049 13.5466L39.5049 7.25684L38.9561 7.25684L38.9561 6.31567L43.1807 6.31567L43.1807 7.25684L42.7412 7.25684L42.7412 13.0447L43.562 12.9087L43.6299 13.8079L42.752 13.9648L42.752 16.1501ZM40.4409 8.65283L41.8525 8.65283L41.8525 7.26221L40.4409 7.26221L40.4409 8.65283ZM41.8525 10.9272L41.8525 9.51562L40.4409 9.51562L40.4409 10.9272L41.8525 10.9272ZM41.8525 13.1807L41.8525 11.7898L40.4409 11.7898L40.4409 13.4053C40.8906 13.3374 41.3716 13.259 41.8525 13.1807ZM49.2402 15.2771C49.0049 15.4653 48.7017 15.873 48.5552 16.1294C47.4365 15.5698 46.605 14.5923 46.0298 13.3479C45.6377 14.3569 44.9111 15.387 43.5986 16.2495C43.4419 16.0247 43.0811 15.6902 42.8247 15.5071C44.5713 14.4302 45.167 13.0654 45.3608 11.8735L43.2642 11.8735L43.2642 10.9324L45.4497 10.9324C45.46 10.7756 45.46 10.6187 45.46 10.4827L45.46 9.10254L43.5205 9.10254L43.5205 8.15088L44.8799 8.15088C44.6655 7.66992 44.2314 6.96411 43.792 6.44653L44.6445 6.03345C45.0942 6.55103 45.5542 7.22021 45.7529 7.69092L44.9004 8.15088L46.2549 8.15088C46.647 7.55493 47.0967 6.68164 47.3423 6.04395L48.4087 6.33667C48.0586 6.96411 47.6665 7.62817 47.3213 8.15088L48.7227 8.15088L48.7227 9.10254L46.5161 9.10254L46.5161 10.5037C46.5161 10.6396 46.5161 10.7859 46.5059 10.9324L49.0938 10.9324L49.0938 11.8735L46.4482 11.8735L46.4482 11.8787C46.9189 13.4158 47.8701 14.6917 49.2402 15.2771Z" fill-rule="evenodd" fill="#000000" fill-opacity="1.000000"/>
	<path d="M55.2319 8.49609L55.2319 14.2471L56.1992 14.2471L56.1992 12.48L57.8145 12.48L57.8145 14.2053L58.7559 14.2053L58.7559 12.48L60.4287 12.48L60.4287 13.2747C60.4287 13.4055 60.3867 13.4524 60.251 13.4524C60.229 13.4524 60.1968 13.4529 60.1553 13.4534C59.9697 13.4553 59.6079 13.4592 59.2314 13.4421C59.3569 13.6772 59.4824 14.0276 59.5137 14.2837C60.2197 14.2837 60.6904 14.2734 61.0142 14.127C61.3281 13.991 61.417 13.7556 61.417 13.2852L61.417 8.49609L59.9688 8.49609C59.77 8.37061 59.5347 8.25024 59.2524 8.12476C60.0522 7.68042 60.8208 7.10522 61.4062 6.5354L60.7793 6.04395L60.5752 6.10156L55.2734 6.10156L55.2734 6.90674L59.6343 6.90674C59.2524 7.18384 58.8081 7.48706 58.3687 7.70142C57.8301 7.47656 57.2812 7.26221 56.8105 7.10522L56.1362 7.67529C56.7324 7.8999 57.438 8.20312 58.0552 8.49609L55.2319 8.49609ZM51.8491 6.74463L52.5654 6.12769C53.2139 6.66602 54.1025 7.45044 54.5049 7.95752L53.7681 8.66333C53.376 8.14575 52.5132 7.33008 51.8491 6.74463ZM56.2095 10.0854L57.8252 10.0854L57.8252 9.28027L56.2095 9.28027L56.2095 10.0854ZM58.7661 10.0854L60.4395 10.0854L60.4395 9.28027L58.7661 9.28027L58.7661 10.0854ZM57.8301 14.8799C56.6069 14.8799 55.6396 14.8013 54.9131 14.3623C54.5625 14.1479 54.3535 13.9805 54.1494 13.855L54.1445 13.855L54.1445 9.92334L51.645 9.92334L51.645 10.8853L53.1562 10.8853L53.1562 13.8342C52.6753 14.0381 52.126 14.498 51.5981 15.0576L52.2358 15.9202C52.7588 15.2039 53.3076 14.5662 53.6685 14.5662C53.9141 14.5662 54.2856 14.9268 54.7354 15.1831C55.5195 15.6379 56.4238 15.7634 57.7939 15.7634C58.9912 15.7634 60.8994 15.7112 61.7046 15.6536C61.7202 15.387 61.877 14.9111 61.9868 14.6445C60.8472 14.7805 59.0957 14.8799 57.8301 14.8799ZM56.2095 10.8489L57.8252 10.8489L57.8252 11.6904L56.2095 11.6904L56.2095 10.8489ZM58.7661 10.8489L60.4395 10.8489L60.4395 11.6904L58.7661 11.6904L58.7661 10.8489Z" fill-rule="evenodd" fill="#000000" fill-opacity="1.000000"/>
	<path d="M65.1919 6.67676L65.8662 6.03882C66.4727 6.53027 67.2466 7.25171 67.6021 7.71191L66.896 8.43872C66.5615 7.95752 65.7983 7.20483 65.1919 6.67676ZM68.3076 10.5352C68.1821 10.3313 67.8267 9.91821 67.6333 9.77173C69.0552 9.13403 69.2803 8.26074 69.2803 7.46094L69.2803 6.24805L73.0029 6.24805L73.0029 8.76807C73.0029 9.08179 73.0239 9.19678 73.1909 9.19678L73.876 9.19678C74.0327 9.19678 74.2891 9.17578 74.4355 9.12866C74.4458 9.39551 74.4824 9.7666 74.5137 10.002C74.3672 10.0593 74.1113 10.0698 73.8862 10.0698L73.1021 10.0698C72.2026 10.0698 72.0146 9.69873 72.0146 8.73657L72.0146 7.20996L70.2422 7.20996L70.2422 7.49756L70.2476 7.49756C70.2476 8.57446 69.9131 9.7981 68.3076 10.5352ZM68.355 13.876C66.3472 15.4551 66.0229 15.7268 65.8452 15.9622C65.7461 15.7166 65.4844 15.2773 65.2964 15.0891C65.521 14.9216 65.8555 14.5505 65.8555 14.0486L65.8555 10.3157L64.397 10.3157L64.397 9.31689L66.8545 9.31689L66.8545 13.8813L67.9731 13.0134C68.062 13.28 68.2295 13.6721 68.355 13.876ZM71.9414 14.2263C72.7256 14.7073 73.646 15.0576 74.6655 15.2563C74.4404 15.4707 74.1636 15.8943 74.0273 16.187C72.8931 15.9045 71.9204 15.4707 71.0894 14.8853C70.1899 15.4656 69.1704 15.8733 68.083 16.1504C67.9941 15.8682 67.769 15.4656 67.5811 15.2407C68.5586 15.0369 69.4839 14.7126 70.2842 14.2212C69.5781 13.5623 69.0083 12.7415 68.5693 11.8005L68.8618 11.7012L68.1875 11.7012L68.1875 10.7234L73.1855 10.7234L73.3428 10.6921L73.9907 10.9744C73.5781 12.3547 72.8457 13.416 71.9414 14.2263ZM71.1206 13.6514C71.7583 13.1233 72.2866 12.4854 72.668 11.7012L69.5312 11.7012C69.9131 12.4539 70.4512 13.1023 71.1206 13.6514Z" fill-rule="evenodd" fill="#000000" fill-opacity="1.000000"/>
	<path d="M81.5195 14.0642C79.3657 15.6223 79.0205 15.8943 78.8271 16.1399C78.7383 15.8577 78.4819 15.3975 78.2886 15.1624C78.5239 15.0264 78.8584 14.6812 78.8584 14.1846L78.8584 10.4724L77.1646 10.4724L77.1646 9.44238L79.9199 9.44238L79.9199 14.0068L81.1958 13.1233C81.2637 13.4265 81.4307 13.8657 81.5195 14.0642ZM78.1108 6.82837L78.7749 6.15381C79.4023 6.64526 80.2231 7.34058 80.605 7.81128L79.8936 8.57446C79.5225 8.104 78.728 7.35107 78.1108 6.82837ZM84.6567 10.6816L84.6567 16.2864L83.5483 16.2864L83.5483 10.6816L80.793 10.6816L80.793 9.60449L83.5483 9.60449L83.5483 6.03882L84.6567 6.03882L84.6567 9.60449L87.3701 9.60449L87.3701 10.6816L84.6567 10.6816Z" fill-rule="evenodd" fill="#000000" fill-opacity="1.000000"/>
	<path d="M91.0249 15.6589C90.8213 15.4551 90.3872 15.1204 90.1152 14.9636C90.978 14.4617 91.8877 13.6721 92.4473 12.9141L93.5034 13.28C92.8442 14.1636 91.8564 15.0732 91.0249 15.6589ZM95.647 15.042C95.647 15.5806 95.5215 15.8733 95.1084 16.03C94.7056 16.187 94.1099 16.1975 93.2939 16.1975C93.2363 15.9045 93.0693 15.4551 92.9019 15.178C93.5293 15.2092 94.167 15.2092 94.3608 15.1987C94.5386 15.1885 94.5854 15.1519 94.5854 15.021L94.5854 12.3076C91.7466 12.5325 91.2915 12.6003 90.9624 12.7207C90.9048 12.543 90.7583 12.0566 90.6484 11.7795C91.0405 11.7219 91.5112 11.5234 92.1963 11.1731C92.5674 11.0056 93.2837 10.624 94.1465 10.0959C92.1074 10.2319 91.7466 10.2842 91.5112 10.3784C91.4644 10.1743 91.3228 9.70386 91.2183 9.45825C91.4644 9.42676 91.71 9.25415 92.0498 9.03467C92.3164 8.85693 93.0273 8.30786 93.6968 7.63354C92.7188 7.71191 91.7676 7.76929 90.8628 7.80078C90.8418 7.54468 90.7163 7.12622 90.6069 6.89111C93.3096 6.76562 96.4834 6.47803 98.3081 6.03882L99.061 6.89111C97.9629 7.14722 96.5825 7.36157 95.1499 7.50806C94.4653 8.18237 93.7383 8.82031 92.9961 9.34839L95.5059 9.2124C96.0757 8.82031 96.6611 8.3916 97.189 7.95752L97.9629 8.63208C96.4727 9.7876 94.8677 10.76 93.2993 11.5234L97.5396 11.241C97.2676 10.9587 97.0112 10.6921 96.7554 10.4463L97.5498 10.0332C98.3916 10.8071 99.3223 11.8369 99.772 12.5325L98.9512 13.0344C98.7734 12.7415 98.5225 12.3965 98.2085 12.0356L95.647 12.2292L95.647 15.042ZM99.9077 15.0525L98.998 15.6694C98.4702 15.0525 97.3618 14.0903 96.4624 13.4055L97.3042 12.8564C98.188 13.4944 99.3223 14.425 99.9077 15.0525Z" fill-rule="evenodd" fill="#000000" fill-opacity="1.000000"/>
	<path d="M106.391 12.6108C103.677 13.2173 103.254 13.3376 103.003 13.4944C102.945 13.2905 102.778 12.7781 102.658 12.5166C102.914 12.4592 103.175 12.2031 103.521 11.79C103.698 11.6018 104.069 11.1155 104.482 10.5247C103.348 10.6606 103.102 10.7285 102.924 10.8174C102.867 10.5928 102.689 10.0542 102.553 9.76147C102.768 9.70386 102.977 9.45825 103.212 9.08691C103.468 8.74194 104.242 7.35107 104.681 6.03882L105.748 6.51978C105.277 7.60742 104.639 8.7522 103.975 9.67261L105.094 9.56274C105.34 9.18115 105.565 8.77856 105.769 8.36548L106.678 8.9248C106.051 10.0227 105.298 11.1208 104.514 12.0618L106.37 11.6802C106.349 11.9729 106.349 12.386 106.391 12.6108ZM102.94 15.8418L102.684 14.8015C103.615 14.5557 105.005 14.0957 106.359 13.667L106.537 14.5505C105.293 15.0105 103.959 15.4812 102.94 15.8418ZM106.438 16.4014C106.312 16.1294 106.025 15.7427 105.8 15.5386C107.562 14.8538 107.761 13.6775 107.839 11.6123L108.858 11.6123C108.77 14.033 108.445 15.5229 106.438 16.4014ZM111.572 11.1104C107.635 11.4919 107.133 11.5598 106.809 11.6958C106.762 11.4502 106.574 10.9221 106.475 10.6868C106.699 10.6396 107.013 10.5508 107.228 10.3418C107.473 10.1169 108.137 9.25415 108.618 8.59033L106.736 8.59033L106.736 7.64917L109.324 7.64917C109.198 7.27783 108.979 6.7395 108.785 6.31592L109.763 6.08057C109.999 6.50415 110.265 7.0896 110.391 7.43481L109.685 7.64917L112.801 7.64917L112.801 8.59033L109.852 8.59033C109.402 9.20728 108.854 9.95996 108.393 10.53L111.086 10.2947C110.861 9.97046 110.646 9.64624 110.438 9.36401L111.243 8.95093C111.839 9.72485 112.555 10.7651 112.869 11.4292L111.985 11.905C111.886 11.6697 111.75 11.4031 111.572 11.1104ZM112.069 13.7087C112.283 13.8865 112.696 14.0435 112.952 14.1218C112.874 15.7373 112.639 16.187 111.875 16.187L111.002 16.187C110.14 16.187 109.925 15.8838 109.925 14.9426L109.925 11.6018L110.945 11.6018L110.945 14.9426C110.945 15.2563 110.976 15.3035 111.18 15.3035L111.787 15.3035L111.787 15.2981C111.99 15.2981 112.032 15.063 112.069 13.7087Z" fill-rule="evenodd" fill="#000000" fill-opacity="1.000000"/>
	<path d="M15.7212 26.199L20.96 31.438L31.4375 20.9551L26.1987 15.7163L20.96 20.9551L15.7212 26.199Z" fill-rule="evenodd" fill="url(#paint_linear_29_21344_0)"/>
	<path d="M15.7217 5.23877L10.4775 0L0 10.4775L5.23877 15.7163L10.4775 10.4775L15.7217 5.23877Z" fill-rule="evenodd" fill="url(#paint_linear_29_21345_0)"/>
	<path d="M20.96 0L15.7212 5.23877L20.96 10.4775L26.1987 15.7163L31.4375 10.4775L20.96 0Z" fill-rule="evenodd" fill="url(#paint_linear_29_21346_0)"/>
	<path d="M15.7212 15.7163L20.96 20.9551L26.1987 15.7163L20.96 10.4775L15.7212 15.7163Z" fill-rule="evenodd" fill="url(#paint_linear_29_21347_0)"/>
	<path d="M15.7217 15.7163L20.9604 10.4775L15.7217 5.23877L10.4775 10.4775L15.7217 15.7163Z" fill-rule="evenodd" fill="url(#paint_linear_29_21348_0)"/>
	<path d="M5.23877 15.7163L0 20.9551L10.4775 31.438L15.7217 26.199L10.4775 20.9551L5.23877 15.7163Z" fill-rule="evenodd" fill="url(#paint_linear_29_21349_0)"/>
	<path d="M15.7217 15.7163L10.4775 20.9551L15.7217 26.199L20.9604 20.9551L15.7217 15.7163Z" fill-rule="evenodd" fill="url(#paint_linear_29_21350_0)"/>
	<path d="M15.7217 15.7163L10.4775 10.4775L5.23877 15.7163L10.4775 20.9551L15.7217 15.7163Z" fill-rule="evenodd" fill="url(#paint_linear_29_21351_0)"/>
	<defs>
		<linearGradient id="paint_linear_29_21344_0" x1="20.959129" y1="20.957548" x2="26.198919" y2="26.197342" gradientUnits="userSpaceOnUse">
			<stop stop-color="#FFB06B"/>
			<stop offset="1.000000" stop-color="#FB974B"/>
		</linearGradient>
		<linearGradient id="paint_linear_29_21345_0" x1="5.240200" y1="5.238270" x2="10.479991" y2="10.478061" gradientUnits="userSpaceOnUse">
			<stop stop-color="#78D1FF"/>
			<stop offset="1.000000" stop-color="#7FE9F4"/>
		</linearGradient>
		<linearGradient id="paint_linear_29_21346_0" x1="20.959131" y1="10.478061" x2="26.198887" y2="5.238307" gradientUnits="userSpaceOnUse">
			<stop stop-color="#FF99BA"/>
			<stop offset="1.000000" stop-color="#FC5087"/>
		</linearGradient>
		<linearGradient id="paint_linear_29_21347_0" x1="15.719361" y1="15.717831" x2="26.198902" y2="15.717831" gradientUnits="userSpaceOnUse">
			<stop offset="0.000000" stop-color="#B8322A"/>
			<stop offset="1.000000" stop-color="#FC35AC"/>
		</linearGradient>
		<linearGradient id="paint_linear_29_21348_0" x1="10.479944" y1="10.478069" x2="20.959484" y2="10.478069" gradientUnits="userSpaceOnUse">
			<stop offset="0.000000" stop-color="#9924B7"/>
			<stop offset="1.000000" stop-color="#AA20AA"/>
		</linearGradient>
		<linearGradient id="paint_linear_29_21349_0" x1="5.240199" y1="26.197340" x2="10.479990" y2="20.957548" gradientUnits="userSpaceOnUse">
			<stop stop-color="#8384FF"/>
			<stop offset="1.000000" stop-color="#769CFF"/>
		</linearGradient>
		<linearGradient id="paint_linear_29_21350_0" x1="10.479944" y1="20.957541" x2="20.959484" y2="20.957541" gradientUnits="userSpaceOnUse">
			<stop stop-color="#383DB0"/>
			<stop offset="1.000000" stop-color="#6168F7"/>
		</linearGradient>
		<linearGradient id="paint_linear_29_21351_0" x1="5.240181" y1="15.717779" x2="15.719722" y2="15.717779" gradientUnits="userSpaceOnUse">
			<stop stop-color="#427AF0"/>
			<stop offset="1.000000" stop-color="#459CE5"/>
		</linearGradient>
	</defs>
</svg>
