<svg width="539.000000" height="431.000000" viewBox="0 0 539 431" fill="none" xmlns="http://www.w3.org/2000/svg" xmlns:xlink="http://www.w3.org/1999/xlink">
	<desc>
			Created with Pixso.
	</desc>
	<path d="M232.456 412.845C233.184 412.791 233.871 412.736 234.514 412.678L234.514 413.505C233.858 413.56 233.171 413.631 232.456 413.7L232.456 414.78L231.533 414.78L231.533 413.771C230.607 413.826 229.63 413.898 228.621 413.953L228.495 413.057C229.558 412.999 230.58 412.958 231.533 412.903L231.533 411.741L228.929 411.741L228.703 410.941C229.096 410.494 229.476 409.964 229.811 409.332L228.314 409.332L228.314 408.436L230.259 408.436C230.385 408.128 230.511 407.821 230.621 407.513L231.629 407.681C231.533 407.934 231.434 408.183 231.322 408.436L234.739 408.436L234.739 409.332L230.901 409.332C230.593 409.919 230.259 410.453 229.91 410.914L231.533 410.914L231.533 409.991L232.456 409.991L232.456 410.914L234.64 410.914L234.64 411.741L232.456 411.741L232.456 412.845ZM284.662 412.008C285.445 410.719 286.118 409.25 286.679 407.582L287.615 407.947C286.901 409.766 286.173 411.222 285.445 412.315C286.104 412.23 286.761 412.131 287.434 412.021C287.701 411.516 287.981 411 288.261 410.466L289.143 410.788C287.868 413.153 286.805 414.834 285.951 415.843C287.014 415.631 288.063 415.354 289.099 415.002L289.099 415.897C287.588 416.417 286.132 416.766 284.73 416.95L284.467 416.038C284.648 415.956 284.802 415.856 284.929 415.744C285.458 415.2 286.118 414.274 286.901 412.958C286.104 413.084 285.305 413.197 284.495 413.31L284.242 412.384C284.395 412.315 284.536 412.189 284.662 412.008ZM271.264 409.653L271.264 408.73L275.98 408.73L275.98 407.626L277.02 407.626L277.02 408.73L281.736 408.73L281.736 409.653L277.02 409.653L277.02 410.873L282.311 410.873L282.311 413.433L281.33 413.433L281.33 411.755L275.98 411.755L276.753 412.131C275.912 412.804 275.044 413.378 274.135 413.867C275.423 413.84 276.473 413.812 277.255 413.758C277.748 413.419 278.25 413.071 278.752 412.705L279.566 413.252C277.915 414.486 276.151 415.422 274.248 416.096C276.066 416.038 277.871 415.942 279.692 415.815C279.385 415.477 279.064 415.156 278.725 414.821L279.453 414.359C280.475 415.354 281.261 416.222 281.805 416.978L281.049 417.521C280.827 417.186 280.574 416.851 280.294 416.516C279.159 416.584 278.096 416.653 277.088 416.711L277.088 419.384C277.088 420.084 276.695 420.45 275.939 420.45L274.665 420.45L274.456 419.51C274.849 419.551 275.239 419.582 275.605 419.582C275.912 419.582 276.08 419.425 276.08 419.148L276.08 416.752C274.542 416.824 273.126 416.878 271.838 416.906L271.643 415.997C271.937 416.01 272.231 416.024 272.511 416.024C273.66 415.703 274.835 415.2 276.066 414.5C275.112 414.527 274.036 414.568 272.819 414.595L272.621 413.826C272.833 413.785 273.041 413.7 273.253 413.587C274.162 413.071 275.03 412.456 275.84 411.755L271.67 411.755L271.67 413.419L270.689 413.419L270.689 410.873L275.98 410.873L275.98 409.653L271.264 409.653ZM289.099 410.34L289.099 409.359L292.445 409.359L292.445 407.667L293.467 407.667L293.467 409.359L296.799 409.359L296.799 410.34L293.467 410.34L293.467 412.411L296.393 412.411L296.393 413.392L289.563 413.392L289.563 412.411L292.445 412.411L292.445 410.34L289.099 410.34ZM263.368 411.543L261.84 411.543L261.84 412.931L264.124 412.931L264.124 407.681L265.064 407.681L265.064 412.931L267.33 412.931L267.33 411.543L265.86 411.543L265.86 410.706L267.33 410.706L267.33 409.178L265.792 409.178L265.792 408.31L268.239 408.31L268.239 413.799L265.064 413.799L265.064 415.029L268.198 415.029L268.198 415.884C267.695 416.906 266.855 417.774 265.706 418.502C266.629 418.922 267.709 419.257 268.94 419.51L268.577 420.45C267.049 420.125 265.747 419.664 264.671 419.076C263.495 419.637 262.093 420.112 260.456 420.478L259.954 419.582C261.41 419.302 262.668 418.936 263.717 418.488C262.709 417.774 261.953 416.919 261.423 415.942L260.836 415.942L260.836 415.029L264.124 415.029L264.124 413.799L260.918 413.799L260.918 408.744C261.646 408.549 262.346 408.255 263.003 407.862L263.577 408.604C263.102 408.856 262.514 409.109 261.84 409.359L261.84 410.706L263.368 410.706L263.368 411.543ZM258.959 419.131C258.959 419.931 258.566 420.337 257.811 420.337L256.495 420.337L256.283 419.384C256.703 419.425 257.096 419.456 257.459 419.456C257.797 419.456 257.978 419.257 257.978 418.881L257.978 415.477C257.445 415.675 256.929 415.856 256.396 416.024L256.173 415.074C256.789 414.903 257.39 414.722 257.978 414.5L257.978 411.28L256.423 411.28L256.423 410.312L257.978 410.312L257.978 407.694L258.959 407.694L258.959 410.312L260.261 410.312L260.261 411.28L258.959 411.28L258.959 414.106C259.434 413.898 259.909 413.659 260.371 413.406L260.371 414.387C259.909 414.626 259.434 414.848 258.959 415.074L258.959 419.131ZM238.294 411.755L236.476 411.755C236.319 412.931 235.943 413.953 235.341 414.821L234.64 414.093C235.256 413.184 235.591 412.104 235.621 410.846L235.621 408.648C237.358 408.477 238.728 408.169 239.709 407.722L240.352 408.477C239.316 408.928 238.055 409.25 236.544 409.417L236.544 410.873L240.745 410.873L240.745 411.755L239.261 411.755L239.261 414.793L238.294 414.793L238.294 411.755ZM299.797 413.604L299.797 408.183L309.135 408.183L309.135 413.604L305.019 413.604L305.019 414.875L310.591 414.875L310.591 415.829L305.915 415.829C306.91 417.087 308.574 418.222 310.898 419.203L310.211 420.084C307.774 418.81 306.069 417.398 305.088 415.829L305.019 415.829L305.019 420.45L303.98 420.45L303.98 415.829L303.926 415.829C302.863 417.552 301.126 418.963 298.689 420.071L298.115 419.148C300.398 418.28 302.049 417.172 303.071 415.829L298.409 415.829L298.409 414.875L303.98 414.875L303.98 413.604L299.797 413.604ZM243.363 409.359L243.363 408.381L253.415 408.381L253.415 409.359L248.401 409.359L248.401 410.299C248.374 411.167 248.319 411.994 248.22 412.75L254.547 412.75L254.547 413.713L250.209 413.713L250.209 418.601C250.209 419.049 250.431 419.288 250.879 419.288L252.66 419.288C252.995 419.288 253.248 419.189 253.402 419.008C253.596 418.782 253.723 418.14 253.791 417.046L254.745 417.354C254.632 418.728 254.423 419.551 254.112 419.859C253.849 420.112 253.429 420.238 252.841 420.238L250.571 420.238C249.649 420.238 249.201 419.763 249.201 418.81L249.201 413.713L248.066 413.713C247.84 414.934 247.492 415.983 247.017 416.878C246.149 418.389 244.747 419.582 242.802 420.419L242.242 419.524C244.173 418.656 245.503 417.521 246.261 416.096C246.596 415.395 246.849 414.595 247.03 413.713L242.423 413.713L242.423 412.75L247.198 412.75C247.311 411.994 247.365 411.167 247.379 410.299L247.379 409.359L243.363 409.359ZM300.805 409.082L300.805 410.48L303.98 410.48L303.98 409.082L300.805 409.082ZM308.14 409.082L305.019 409.082L305.019 410.48L308.14 410.48L308.14 409.082ZM300.805 412.722L303.98 412.722L303.98 411.362L300.805 411.362L300.805 412.722ZM305.019 412.722L308.14 412.722L308.14 411.362L305.019 411.362L305.019 412.722ZM290.011 414.793L295.989 414.793L295.989 420.419L295.008 420.419L295.008 419.75L291.002 419.75L291.002 420.419L290.011 420.419L290.011 414.793ZM229.992 415.2L239.176 415.2L239.176 420.464L238.14 420.464L238.14 419.917L231.028 419.917L231.028 420.464L229.992 420.464L229.992 415.2ZM291.002 415.744L291.002 418.796L295.008 418.796L295.008 415.744L291.002 415.744ZM267.108 415.942L262.459 415.942C263.003 416.738 263.761 417.425 264.725 418C265.775 417.412 266.574 416.725 267.108 415.942ZM231.028 416.051L231.028 417.145L238.14 417.145L238.14 416.051L231.028 416.051ZM270.382 419.257C271.91 418.796 273.168 418.181 274.162 417.425L274.75 418.082C273.701 418.922 272.385 419.609 270.802 420.153L270.382 419.257ZM278.069 418.194L278.571 417.453C280.027 417.986 281.343 418.628 282.533 419.384L282.017 420.197C280.728 419.356 279.412 418.683 278.069 418.194ZM284.283 418.909C286.186 418.601 287.841 418.181 289.27 417.661L289.27 418.615C287.841 419.131 286.231 419.551 284.409 419.89L284.283 418.909ZM231.028 417.955L231.028 419.049L238.14 419.049L238.14 417.955L231.028 417.955Z" fill="#86909C"/>
	<ellipse cx="269.055298" cy="321.687988" rx="238.062820" ry="59.356781" fill="url(#paint_linear_272_39024_0)"/>
	<path d="M391.044 22.897C375.15 22.8979 360.717 32.1665 354.11 46.6152C341.724 41.3086 327.32 45.9097 320.309 57.4116C313.297 68.9136 315.812 83.8184 326.209 92.3862C336.606 100.954 351.723 100.58 361.682 91.5068C374.454 104.873 394.648 107.925 410.802 98.9297C426.956 89.9346 434.988 71.1655 430.339 53.2764C425.691 35.3872 409.536 22.8975 391.044 22.897L391.044 22.897Z" fill-rule="evenodd" fill="url(#paint_linear_272_39025_0)"/>
	<path d="M139.399 64.4482C152.116 64.4478 163.664 71.8643 168.95 83.4258C178.856 79.1812 190.378 82.8604 195.988 92.0601C201.598 101.259 199.59 113.181 191.276 120.038C182.961 126.894 170.87 126.6 162.899 119.347C152.681 130.044 136.521 132.488 123.594 125.291C110.667 118.095 104.238 103.076 107.957 88.7607C111.675 74.4453 124.602 64.4497 139.399 64.4482L139.399 64.4482Z" fill-rule="evenodd" fill="url(#paint_linear_272_39026_0)"/>
	<path d="M421.39 184.32C414.048 184.326 407.385 188.617 404.344 195.297C399.676 193.298 394.262 194.319 390.644 197.881C387.026 201.443 385.923 206.839 387.852 211.535C389.782 216.23 394.361 219.293 399.439 219.285C402.548 219.29 405.544 218.126 407.834 216.025C413.728 222.202 423.054 223.617 430.515 219.465C437.977 215.313 441.687 206.646 439.54 198.384C437.392 190.123 429.93 184.356 421.39 184.36L421.39 184.32Z" fill-rule="evenodd" fill="url(#paint_linear_272_39027_0)"/>
	<path d="M367.423 212.187L344.151 212.187L345.917 225.251C346.477 229.42 347.925 233.42 350.161 236.982L352.304 240.417C352.304 240.417 368.77 241.239 367.423 212.187Z" fill-rule="evenodd" fill="url(#paint_linear_272_39028_0)"/>
	<path d="M175.822 212.187L199.107 212.187L197.328 225.251C196.781 229.442 195.338 233.466 193.097 237.05L190.954 240.484C190.954 240.484 174.488 241.239 175.822 212.187Z" fill-rule="evenodd" fill="url(#paint_linear_272_39029_0)"/>
	<path d="M196.978 103.548C196.978 103.548 266.845 141.26 352.385 103.548C352.385 103.548 338.721 144.883 352.385 240.417C352.385 240.417 266.845 219.541 190.954 240.417C190.954 240.417 213.04 191.041 196.978 103.548Z" fill-rule="evenodd" fill="url(#paint_linear_272_39030_0)"/>
	<ellipse cx="324.653137" cy="132.397949" rx="28.863449" ry="28.850063" fill="url(#paint_linear_272_39031_0)"/>
	<path d="M372.395 179.565L344.434 152.803C344.25 152.627 344.145 152.384 344.145 152.129C344.145 151.875 344.25 151.631 344.434 151.456L347.129 148.52C347.294 148.326 347.53 148.207 347.783 148.189C348.037 148.171 348.287 148.256 348.477 148.426L377.96 173.41C378.833 174.125 379.366 175.171 379.433 176.297C379.499 177.422 379.093 178.524 378.311 179.336C377.578 180.187 376.525 180.695 375.403 180.739C374.281 180.782 373.191 180.357 372.395 179.565Z" fill-rule="evenodd" fill="url(#paint_linear_272_39032_0)"/>
	<ellipse cx="324.653137" cy="132.397949" rx="24.308899" ry="24.297623" fill="url(#paint_linear_272_39033_0)"/>
	<ellipse cx="274.472260" cy="174.622070" rx="6.077232" ry="6.074409" fill="#EBF1FF"/>
	<ellipse cx="253.154800" cy="174.622070" rx="6.077225" ry="6.074409" fill="#EBF1FF"/>
	<ellipse cx="295.776276" cy="174.622070" rx="6.077240" ry="6.074409" fill="#EBF1FF"/>
	<defs>
		<linearGradient id="paint_linear_272_39024_0" x1="401.004883" y1="339.695068" x2="401.004883" y2="262.331055" gradientUnits="userSpaceOnUse">
			<stop stop-color="#EBF1FF" stop-opacity="0.098039"/>
			<stop offset="1.000000" stop-color="#BCD0FF"/>
		</linearGradient>
		<linearGradient id="paint_linear_272_39025_0" x1="405.951538" y1="75.790405" x2="405.951538" y2="22.896973" gradientUnits="userSpaceOnUse">
			<stop stop-color="#EBF1FF" stop-opacity="0.098039"/>
			<stop offset="1.000000" stop-color="#BCD0FF"/>
		</linearGradient>
		<linearGradient id="paint_linear_272_39026_0" x1="178.596741" y1="106.773514" x2="178.596741" y2="64.448242" gradientUnits="userSpaceOnUse">
			<stop stop-color="#EBF1FF" stop-opacity="0.098039"/>
			<stop offset="1.000000" stop-color="#BCD0FF"/>
		</linearGradient>
		<linearGradient id="paint_linear_272_39027_0" x1="428.280762" y1="208.765259" x2="428.280762" y2="184.319824" gradientUnits="userSpaceOnUse">
			<stop stop-color="#EBF1FF" stop-opacity="0.098039"/>
			<stop offset="1.000000" stop-color="#BCD0FF"/>
		</linearGradient>
		<linearGradient id="paint_linear_272_39028_0" x1="365.536896" y1="229.344513" x2="358.794708" y2="213.454147" gradientUnits="userSpaceOnUse">
			<stop stop-color="#EBF1FF"/>
			<stop offset="1.000000" stop-color="#BCD0FF"/>
		</linearGradient>
		<linearGradient id="paint_linear_272_39029_0" x1="197.141235" y1="229.385147" x2="190.395615" y2="213.457169" gradientUnits="userSpaceOnUse">
			<stop stop-color="#EBF1FF"/>
			<stop offset="1.000000" stop-color="#BCD0FF"/>
		</linearGradient>
		<linearGradient id="paint_linear_272_39030_0" x1="162.844772" y1="154.071869" x2="252.400681" y2="260.588104" gradientUnits="userSpaceOnUse">
			<stop stop-color="#8FB0FF"/>
			<stop offset="0.551027" stop-color="#BCD0FF"/>
			<stop offset="0.990160" stop-color="#8FB0FF"/>
			<stop offset="1.000000" stop-color="#8FB0FF"/>
		</linearGradient>
		<linearGradient id="paint_linear_272_39031_0" x1="293.243317" y1="118.967216" x2="311.381592" y2="145.497955" gradientUnits="userSpaceOnUse">
			<stop stop-color="#8FB0FF"/>
			<stop offset="0.551027" stop-color="#BCD0FF"/>
			<stop offset="1.000000" stop-color="#8FB0FF"/>
		</linearGradient>
		<linearGradient id="paint_linear_272_39032_0" x1="376.470734" y1="167.971298" x2="366.279541" y2="149.648224" gradientUnits="userSpaceOnUse">
			<stop stop-color="#EBF1FF"/>
			<stop offset="1.000000" stop-color="#BCD0FF"/>
		</linearGradient>
		<linearGradient id="paint_linear_272_39033_0" x1="297.960968" y1="136.835342" x2="334.564545" y2="165.616974" gradientUnits="userSpaceOnUse">
			<stop stop-color="#8FB0FF"/>
			<stop offset="0.551027" stop-color="#BCD0FF"/>
			<stop offset="0.838455" stop-color="#92B2FF"/>
			<stop offset="1.000000" stop-color="#8FB0FF"/>
		</linearGradient>
	</defs>
</svg>
